<?xml version="1.0" encoding="utf-8" standalone="no"?>
<!DOCTYPE svg PUBLIC "-//W3C//DTD SVG 1.1//EN"
  "http://www.w3.org/Graphics/SVG/1.1/DTD/svg11.dtd">
<!-- Created with matplotlib (https://matplotlib.org/) -->
<svg height="391.4325pt" version="1.1" viewBox="0 0 1164.897681 391.4325" width="1164.897681pt" xmlns="http://www.w3.org/2000/svg" xmlns:xlink="http://www.w3.org/1999/xlink">
 <defs>
  <style type="text/css">
*{stroke-linecap:butt;stroke-linejoin:round;}
  </style>
 </defs>
 <g id="figure_1">
  <g id="patch_1">
   <path d="M 0 391.4325 
L 1164.897681 391.4325 
L 1164.897681 0 
L 0 0 
z
" style="fill:none;"/>
  </g>
  <g id="axes_1">
   <g id="patch_2">
    <path d="M 36.465625 367.554375 
L 364.700919 367.554375 
L 364.700919 41.394375 
L 36.465625 41.394375 
z
" style="fill:#ffffff;"/>
   </g>
   <g id="patch_3">
    <path clip-path="url(#p0f9479c31d)" d="M 88.236955 367.554375 
L 101.454169 367.554375 
L 101.454169 349.546922 
L 88.236955 349.546922 
z
" style="fill:#fb8861;opacity:0.4;"/>
   </g>
   <g id="patch_4">
    <path clip-path="url(#p0f9479c31d)" d="M 101.454169 367.554375 
L 114.671383 367.554375 
L 114.671383 349.546922 
L 101.454169 349.546922 
z
" style="fill:#fb8861;opacity:0.4;"/>
   </g>
   <g id="patch_5">
    <path clip-path="url(#p0f9479c31d)" d="M 114.671383 367.554375 
L 127.888596 367.554375 
L 127.888596 345.045058 
L 114.671383 345.045058 
z
" style="fill:#fb8861;opacity:0.4;"/>
   </g>
   <g id="patch_6">
    <path clip-path="url(#p0f9479c31d)" d="M 127.888596 367.554375 
L 141.10581 367.554375 
L 141.10581 264.011518 
L 127.888596 264.011518 
z
" style="fill:#fb8861;opacity:0.4;"/>
   </g>
   <g id="patch_7">
    <path clip-path="url(#p0f9479c31d)" d="M 141.10581 367.554375 
L 154.323024 367.554375 
L 154.323024 259.509655 
L 141.10581 259.509655 
z
" style="fill:#fb8861;opacity:0.4;"/>
   </g>
   <g id="patch_8">
    <path clip-path="url(#p0f9479c31d)" d="M 154.323024 367.554375 
L 167.540238 367.554375 
L 167.540238 259.509655 
L 154.323024 259.509655 
z
" style="fill:#fb8861;opacity:0.4;"/>
   </g>
   <g id="patch_9">
    <path clip-path="url(#p0f9479c31d)" d="M 167.540238 367.554375 
L 180.757451 367.554375 
L 180.757451 209.989158 
L 167.540238 209.989158 
z
" style="fill:#fb8861;opacity:0.4;"/>
   </g>
   <g id="patch_10">
    <path clip-path="url(#p0f9479c31d)" d="M 180.757451 367.554375 
L 193.974665 367.554375 
L 193.974665 160.468661 
L 180.757451 160.468661 
z
" style="fill:#fb8861;opacity:0.4;"/>
   </g>
   <g id="patch_11">
    <path clip-path="url(#p0f9479c31d)" d="M 193.974665 367.554375 
L 207.191879 367.554375 
L 207.191879 106.4463 
L 193.974665 106.4463 
z
" style="fill:#fb8861;opacity:0.4;"/>
   </g>
   <g id="patch_12">
    <path clip-path="url(#p0f9479c31d)" d="M 207.191879 367.554375 
L 220.409093 367.554375 
L 220.409093 79.43512 
L 207.191879 79.43512 
z
" style="fill:#fb8861;opacity:0.4;"/>
   </g>
   <g id="patch_13">
    <path clip-path="url(#p0f9479c31d)" d="M 220.409093 367.554375 
L 233.626306 367.554375 
L 233.626306 56.925804 
L 220.409093 56.925804 
z
" style="fill:#fb8861;opacity:0.4;"/>
   </g>
   <g id="patch_14">
    <path clip-path="url(#p0f9479c31d)" d="M 233.626306 367.554375 
L 246.84352 367.554375 
L 246.84352 160.468661 
L 233.626306 160.468661 
z
" style="fill:#fb8861;opacity:0.4;"/>
   </g>
   <g id="patch_15">
    <path clip-path="url(#p0f9479c31d)" d="M 246.84352 367.554375 
L 260.060734 367.554375 
L 260.060734 273.015245 
L 246.84352 273.015245 
z
" style="fill:#fb8861;opacity:0.4;"/>
   </g>
   <g id="patch_16">
    <path clip-path="url(#p0f9479c31d)" d="M 260.060734 367.554375 
L 273.277948 367.554375 
L 273.277948 214.491021 
L 260.060734 214.491021 
z
" style="fill:#fb8861;opacity:0.4;"/>
   </g>
   <g id="patch_17">
    <path clip-path="url(#p0f9479c31d)" d="M 273.277948 367.554375 
L 286.495161 367.554375 
L 286.495161 259.509655 
L 273.277948 259.509655 
z
" style="fill:#fb8861;opacity:0.4;"/>
   </g>
   <g id="patch_18">
    <path clip-path="url(#p0f9479c31d)" d="M 286.495161 367.554375 
L 299.712375 367.554375 
L 299.712375 322.535741 
L 286.495161 322.535741 
z
" style="fill:#fb8861;opacity:0.4;"/>
   </g>
   <g id="patch_19">
    <path clip-path="url(#p0f9479c31d)" d="M 299.712375 367.554375 
L 312.929589 367.554375 
L 312.929589 363.052512 
L 299.712375 363.052512 
z
" style="fill:#fb8861;opacity:0.4;"/>
   </g>
   <g id="matplotlib.axis_1">
    <g id="xtick_1">
     <g id="line2d_1">
      <defs>
       <path d="M 0 0 
L 0 3.5 
" id="m1345c750f1" style="stroke:#000000;stroke-width:0.8;"/>
      </defs>
      <g>
       <use style="stroke:#000000;stroke-width:0.8;" x="80.445225" xlink:href="#m1345c750f1" y="367.554375"/>
      </g>
     </g>
     <g id="text_1">
      <!-- −20 -->
      <defs>
       <path d="M 10.59375 35.5 
L 73.1875 35.5 
L 73.1875 27.203125 
L 10.59375 27.203125 
z
" id="DejaVuSans-8722"/>
       <path d="M 19.1875 8.296875 
L 53.609375 8.296875 
L 53.609375 0 
L 7.328125 0 
L 7.328125 8.296875 
Q 12.9375 14.109375 22.625 23.890625 
Q 32.328125 33.6875 34.8125 36.53125 
Q 39.546875 41.84375 41.421875 45.53125 
Q 43.3125 49.21875 43.3125 52.78125 
Q 43.3125 58.59375 39.234375 62.25 
Q 35.15625 65.921875 28.609375 65.921875 
Q 23.96875 65.921875 18.8125 64.3125 
Q 13.671875 62.703125 7.8125 59.421875 
L 7.8125 69.390625 
Q 13.765625 71.78125 18.9375 73 
Q 24.125 74.21875 28.421875 74.21875 
Q 39.75 74.21875 46.484375 68.546875 
Q 53.21875 62.890625 53.21875 53.421875 
Q 53.21875 48.921875 51.53125 44.890625 
Q 49.859375 40.875 45.40625 35.40625 
Q 44.1875 33.984375 37.640625 27.21875 
Q 31.109375 20.453125 19.1875 8.296875 
z
" id="DejaVuSans-50"/>
       <path d="M 31.78125 66.40625 
Q 24.171875 66.40625 20.328125 58.90625 
Q 16.5 51.421875 16.5 36.375 
Q 16.5 21.390625 20.328125 13.890625 
Q 24.171875 6.390625 31.78125 6.390625 
Q 39.453125 6.390625 43.28125 13.890625 
Q 47.125 21.390625 47.125 36.375 
Q 47.125 51.421875 43.28125 58.90625 
Q 39.453125 66.40625 31.78125 66.40625 
z
M 31.78125 74.21875 
Q 44.046875 74.21875 50.515625 64.515625 
Q 56.984375 54.828125 56.984375 36.375 
Q 56.984375 17.96875 50.515625 8.265625 
Q 44.046875 -1.421875 31.78125 -1.421875 
Q 19.53125 -1.421875 13.0625 8.265625 
Q 6.59375 17.96875 6.59375 36.375 
Q 6.59375 54.828125 13.0625 64.515625 
Q 19.53125 74.21875 31.78125 74.21875 
z
" id="DejaVuSans-48"/>
      </defs>
      <g transform="translate(69.892881 382.152812)scale(0.1 -0.1)">
       <use xlink:href="#DejaVuSans-8722"/>
       <use x="83.789062" xlink:href="#DejaVuSans-50"/>
       <use x="147.412109" xlink:href="#DejaVuSans-48"/>
      </g>
     </g>
    </g>
    <g id="xtick_2">
     <g id="line2d_2">
      <g>
       <use style="stroke:#000000;stroke-width:0.8;" x="130.031476" xlink:href="#m1345c750f1" y="367.554375"/>
      </g>
     </g>
     <g id="text_2">
      <!-- −15 -->
      <defs>
       <path d="M 12.40625 8.296875 
L 28.515625 8.296875 
L 28.515625 63.921875 
L 10.984375 60.40625 
L 10.984375 69.390625 
L 28.421875 72.90625 
L 38.28125 72.90625 
L 38.28125 8.296875 
L 54.390625 8.296875 
L 54.390625 0 
L 12.40625 0 
z
" id="DejaVuSans-49"/>
       <path d="M 10.796875 72.90625 
L 49.515625 72.90625 
L 49.515625 64.59375 
L 19.828125 64.59375 
L 19.828125 46.734375 
Q 21.96875 47.46875 24.109375 47.828125 
Q 26.265625 48.1875 28.421875 48.1875 
Q 40.625 48.1875 47.75 41.5 
Q 54.890625 34.8125 54.890625 23.390625 
Q 54.890625 11.625 47.5625 5.09375 
Q 40.234375 -1.421875 26.90625 -1.421875 
Q 22.3125 -1.421875 17.546875 -0.640625 
Q 12.796875 0.140625 7.71875 1.703125 
L 7.71875 11.625 
Q 12.109375 9.234375 16.796875 8.0625 
Q 21.484375 6.890625 26.703125 6.890625 
Q 35.15625 6.890625 40.078125 11.328125 
Q 45.015625 15.765625 45.015625 23.390625 
Q 45.015625 31 40.078125 35.4375 
Q 35.15625 39.890625 26.703125 39.890625 
Q 22.75 39.890625 18.8125 39.015625 
Q 14.890625 38.140625 10.796875 36.28125 
z
" id="DejaVuSans-53"/>
      </defs>
      <g transform="translate(119.479132 382.152812)scale(0.1 -0.1)">
       <use xlink:href="#DejaVuSans-8722"/>
       <use x="83.789062" xlink:href="#DejaVuSans-49"/>
       <use x="147.412109" xlink:href="#DejaVuSans-53"/>
      </g>
     </g>
    </g>
    <g id="xtick_3">
     <g id="line2d_3">
      <g>
       <use style="stroke:#000000;stroke-width:0.8;" x="179.617727" xlink:href="#m1345c750f1" y="367.554375"/>
      </g>
     </g>
     <g id="text_3">
      <!-- −10 -->
      <g transform="translate(169.065383 382.152812)scale(0.1 -0.1)">
       <use xlink:href="#DejaVuSans-8722"/>
       <use x="83.789062" xlink:href="#DejaVuSans-49"/>
       <use x="147.412109" xlink:href="#DejaVuSans-48"/>
      </g>
     </g>
    </g>
    <g id="xtick_4">
     <g id="line2d_4">
      <g>
       <use style="stroke:#000000;stroke-width:0.8;" x="229.203978" xlink:href="#m1345c750f1" y="367.554375"/>
      </g>
     </g>
     <g id="text_4">
      <!-- −5 -->
      <g transform="translate(221.832884 382.152812)scale(0.1 -0.1)">
       <use xlink:href="#DejaVuSans-8722"/>
       <use x="83.789062" xlink:href="#DejaVuSans-53"/>
      </g>
     </g>
    </g>
    <g id="xtick_5">
     <g id="line2d_5">
      <g>
       <use style="stroke:#000000;stroke-width:0.8;" x="278.790229" xlink:href="#m1345c750f1" y="367.554375"/>
      </g>
     </g>
     <g id="text_5">
      <!-- 0 -->
      <g transform="translate(275.608979 382.152812)scale(0.1 -0.1)">
       <use xlink:href="#DejaVuSans-48"/>
      </g>
     </g>
    </g>
    <g id="xtick_6">
     <g id="line2d_6">
      <g>
       <use style="stroke:#000000;stroke-width:0.8;" x="328.37648" xlink:href="#m1345c750f1" y="367.554375"/>
      </g>
     </g>
     <g id="text_6">
      <!-- 5 -->
      <g transform="translate(325.19523 382.152812)scale(0.1 -0.1)">
       <use xlink:href="#DejaVuSans-53"/>
      </g>
     </g>
    </g>
   </g>
   <g id="matplotlib.axis_2">
    <g id="ytick_1">
     <g id="line2d_7">
      <defs>
       <path d="M 0 0 
L -3.5 0 
" id="m032b9545d6" style="stroke:#000000;stroke-width:0.8;"/>
      </defs>
      <g>
       <use style="stroke:#000000;stroke-width:0.8;" x="36.465625" xlink:href="#m032b9545d6" y="367.554375"/>
      </g>
     </g>
     <g id="text_7">
      <!-- 0.00 -->
      <defs>
       <path d="M 10.6875 12.40625 
L 21 12.40625 
L 21 0 
L 10.6875 0 
z
" id="DejaVuSans-46"/>
      </defs>
      <g transform="translate(7.2 371.353594)scale(0.1 -0.1)">
       <use xlink:href="#DejaVuSans-48"/>
       <use x="63.623047" xlink:href="#DejaVuSans-46"/>
       <use x="95.410156" xlink:href="#DejaVuSans-48"/>
       <use x="159.033203" xlink:href="#DejaVuSans-48"/>
      </g>
     </g>
    </g>
    <g id="ytick_2">
     <g id="line2d_8">
      <g>
       <use style="stroke:#000000;stroke-width:0.8;" x="36.465625" xlink:href="#m032b9545d6" y="308.515775"/>
      </g>
     </g>
     <g id="text_8">
      <!-- 0.02 -->
      <g transform="translate(7.2 312.314994)scale(0.1 -0.1)">
       <use xlink:href="#DejaVuSans-48"/>
       <use x="63.623047" xlink:href="#DejaVuSans-46"/>
       <use x="95.410156" xlink:href="#DejaVuSans-48"/>
       <use x="159.033203" xlink:href="#DejaVuSans-50"/>
      </g>
     </g>
    </g>
    <g id="ytick_3">
     <g id="line2d_9">
      <g>
       <use style="stroke:#000000;stroke-width:0.8;" x="36.465625" xlink:href="#m032b9545d6" y="249.477175"/>
      </g>
     </g>
     <g id="text_9">
      <!-- 0.04 -->
      <defs>
       <path d="M 37.796875 64.3125 
L 12.890625 25.390625 
L 37.796875 25.390625 
z
M 35.203125 72.90625 
L 47.609375 72.90625 
L 47.609375 25.390625 
L 58.015625 25.390625 
L 58.015625 17.1875 
L 47.609375 17.1875 
L 47.609375 0 
L 37.796875 0 
L 37.796875 17.1875 
L 4.890625 17.1875 
L 4.890625 26.703125 
z
" id="DejaVuSans-52"/>
      </defs>
      <g transform="translate(7.2 253.276394)scale(0.1 -0.1)">
       <use xlink:href="#DejaVuSans-48"/>
       <use x="63.623047" xlink:href="#DejaVuSans-46"/>
       <use x="95.410156" xlink:href="#DejaVuSans-48"/>
       <use x="159.033203" xlink:href="#DejaVuSans-52"/>
      </g>
     </g>
    </g>
    <g id="ytick_4">
     <g id="line2d_10">
      <g>
       <use style="stroke:#000000;stroke-width:0.8;" x="36.465625" xlink:href="#m032b9545d6" y="190.438575"/>
      </g>
     </g>
     <g id="text_10">
      <!-- 0.06 -->
      <defs>
       <path d="M 33.015625 40.375 
Q 26.375 40.375 22.484375 35.828125 
Q 18.609375 31.296875 18.609375 23.390625 
Q 18.609375 15.53125 22.484375 10.953125 
Q 26.375 6.390625 33.015625 6.390625 
Q 39.65625 6.390625 43.53125 10.953125 
Q 47.40625 15.53125 47.40625 23.390625 
Q 47.40625 31.296875 43.53125 35.828125 
Q 39.65625 40.375 33.015625 40.375 
z
M 52.59375 71.296875 
L 52.59375 62.3125 
Q 48.875 64.0625 45.09375 64.984375 
Q 41.3125 65.921875 37.59375 65.921875 
Q 27.828125 65.921875 22.671875 59.328125 
Q 17.53125 52.734375 16.796875 39.40625 
Q 19.671875 43.65625 24.015625 45.921875 
Q 28.375 48.1875 33.59375 48.1875 
Q 44.578125 48.1875 50.953125 41.515625 
Q 57.328125 34.859375 57.328125 23.390625 
Q 57.328125 12.15625 50.6875 5.359375 
Q 44.046875 -1.421875 33.015625 -1.421875 
Q 20.359375 -1.421875 13.671875 8.265625 
Q 6.984375 17.96875 6.984375 36.375 
Q 6.984375 53.65625 15.1875 63.9375 
Q 23.390625 74.21875 37.203125 74.21875 
Q 40.921875 74.21875 44.703125 73.484375 
Q 48.484375 72.75 52.59375 71.296875 
z
" id="DejaVuSans-54"/>
      </defs>
      <g transform="translate(7.2 194.237794)scale(0.1 -0.1)">
       <use xlink:href="#DejaVuSans-48"/>
       <use x="63.623047" xlink:href="#DejaVuSans-46"/>
       <use x="95.410156" xlink:href="#DejaVuSans-48"/>
       <use x="159.033203" xlink:href="#DejaVuSans-54"/>
      </g>
     </g>
    </g>
    <g id="ytick_5">
     <g id="line2d_11">
      <g>
       <use style="stroke:#000000;stroke-width:0.8;" x="36.465625" xlink:href="#m032b9545d6" y="131.399975"/>
      </g>
     </g>
     <g id="text_11">
      <!-- 0.08 -->
      <defs>
       <path d="M 31.78125 34.625 
Q 24.75 34.625 20.71875 30.859375 
Q 16.703125 27.09375 16.703125 20.515625 
Q 16.703125 13.921875 20.71875 10.15625 
Q 24.75 6.390625 31.78125 6.390625 
Q 38.8125 6.390625 42.859375 10.171875 
Q 46.921875 13.96875 46.921875 20.515625 
Q 46.921875 27.09375 42.890625 30.859375 
Q 38.875 34.625 31.78125 34.625 
z
M 21.921875 38.8125 
Q 15.578125 40.375 12.03125 44.71875 
Q 8.5 49.078125 8.5 55.328125 
Q 8.5 64.0625 14.71875 69.140625 
Q 20.953125 74.21875 31.78125 74.21875 
Q 42.671875 74.21875 48.875 69.140625 
Q 55.078125 64.0625 55.078125 55.328125 
Q 55.078125 49.078125 51.53125 44.71875 
Q 48 40.375 41.703125 38.8125 
Q 48.828125 37.15625 52.796875 32.3125 
Q 56.78125 27.484375 56.78125 20.515625 
Q 56.78125 9.90625 50.3125 4.234375 
Q 43.84375 -1.421875 31.78125 -1.421875 
Q 19.734375 -1.421875 13.25 4.234375 
Q 6.78125 9.90625 6.78125 20.515625 
Q 6.78125 27.484375 10.78125 32.3125 
Q 14.796875 37.15625 21.921875 38.8125 
z
M 18.3125 54.390625 
Q 18.3125 48.734375 21.84375 45.5625 
Q 25.390625 42.390625 31.78125 42.390625 
Q 38.140625 42.390625 41.71875 45.5625 
Q 45.3125 48.734375 45.3125 54.390625 
Q 45.3125 60.0625 41.71875 63.234375 
Q 38.140625 66.40625 31.78125 66.40625 
Q 25.390625 66.40625 21.84375 63.234375 
Q 18.3125 60.0625 18.3125 54.390625 
z
" id="DejaVuSans-56"/>
      </defs>
      <g transform="translate(7.2 135.199194)scale(0.1 -0.1)">
       <use xlink:href="#DejaVuSans-48"/>
       <use x="63.623047" xlink:href="#DejaVuSans-46"/>
       <use x="95.410156" xlink:href="#DejaVuSans-48"/>
       <use x="159.033203" xlink:href="#DejaVuSans-56"/>
      </g>
     </g>
    </g>
    <g id="ytick_6">
     <g id="line2d_12">
      <g>
       <use style="stroke:#000000;stroke-width:0.8;" x="36.465625" xlink:href="#m032b9545d6" y="72.361375"/>
      </g>
     </g>
     <g id="text_12">
      <!-- 0.10 -->
      <g transform="translate(7.2 76.160594)scale(0.1 -0.1)">
       <use xlink:href="#DejaVuSans-48"/>
       <use x="63.623047" xlink:href="#DejaVuSans-46"/>
       <use x="95.410156" xlink:href="#DejaVuSans-49"/>
       <use x="159.033203" xlink:href="#DejaVuSans-48"/>
      </g>
     </g>
    </g>
   </g>
   <g id="line2d_13">
    <path clip-path="url(#p0f9479c31d)" d="M 51.661232 367.504331 
L 58.696919 367.359691 
L 63.387377 367.060665 
L 68.077835 366.441625 
L 70.423064 365.958029 
L 72.768293 365.331147 
L 75.113522 364.546528 
L 77.458751 363.598372 
L 79.80398 362.492353 
L 84.494438 359.895904 
L 91.530125 355.670419 
L 96.220583 353.178123 
L 100.911041 351.090266 
L 105.601498 348.958607 
L 107.946727 347.572072 
L 110.291956 345.755517 
L 112.637185 343.340035 
L 114.982414 340.176492 
L 117.327643 336.157583 
L 119.672872 331.23718 
L 122.018101 325.443901 
L 124.36333 318.886478 
L 129.053788 304.279395 
L 133.744246 289.489646 
L 136.089475 282.734967 
L 138.434704 276.711771 
L 140.779933 271.551581 
L 143.125162 267.285695 
L 145.470391 263.840865 
L 147.81562 261.049235 
L 154.851307 254.038958 
L 157.196536 251.250672 
L 159.541765 247.866551 
L 161.886994 243.756883 
L 164.232223 238.859553 
L 166.577452 233.170026 
L 168.922681 226.725679 
L 171.26791 219.589623 
L 173.613139 211.838343 
L 175.958368 203.555468 
L 180.648826 185.768107 
L 190.029742 148.691139 
L 192.374971 139.964441 
L 194.7202 131.751586 
L 197.065429 124.17059 
L 199.410658 117.308477 
L 201.755887 111.217779 
L 204.101116 105.917175 
L 206.446345 101.396443 
L 208.791573 97.626027 
L 211.136802 94.571515 
L 213.482031 92.212651 
L 215.82726 90.564872 
L 218.172489 89.699268 
L 220.517718 89.75501 
L 222.862947 90.937903 
L 225.208176 93.500464 
L 227.553405 97.70294 
L 229.898634 103.76 
L 232.243863 111.782869 
L 234.589092 121.729723 
L 236.934321 133.376894 
L 239.27955 146.319769 
L 246.315237 187.041936 
L 248.660466 199.167362 
L 251.005695 209.738323 
L 253.350924 218.510367 
L 255.696153 225.447284 
L 258.041382 230.710135 
L 260.386611 234.621044 
L 262.73184 237.609744 
L 267.422298 242.714236 
L 269.767527 245.697815 
L 272.112756 249.411834 
L 274.457985 254.052227 
L 276.803214 259.700332 
L 279.148443 266.33277 
L 281.493672 273.838984 
L 283.838901 282.042234 
L 288.529359 299.628283 
L 293.219817 317.123838 
L 295.565046 325.247705 
L 297.910275 332.700241 
L 300.255504 339.348072 
L 302.600733 345.113312 
L 304.945962 349.974994 
L 307.291191 353.964557 
L 309.63642 357.15595 
L 311.981648 359.65201 
L 314.326877 361.569487 
L 316.672106 363.025211 
L 319.017335 364.125374 
L 321.362564 364.958996 
L 323.707793 365.595589 
L 328.398251 366.466762 
L 333.088709 366.988792 
L 337.779167 367.28722 
L 344.814854 367.480385 
L 349.505312 367.51088 
L 349.505312 367.51088 
" style="fill:none;stroke:#fb8861;stroke-linecap:square;stroke-width:1.5;"/>
   </g>
   <g id="line2d_14">
    <path clip-path="url(#p0f9479c31d)" d="M 51.385411 367.295222 
L 60.382267 366.994774 
L 67.879647 366.527455 
L 73.877551 365.922514 
L 78.375979 365.274885 
L 82.874407 364.405889 
L 87.372835 363.254304 
L 90.371787 362.294105 
L 93.370739 361.151618 
L 96.369691 359.799898 
L 99.368643 358.209693 
L 102.367595 356.349601 
L 105.366547 354.186321 
L 108.365499 351.684999 
L 111.364451 348.809695 
L 114.363403 345.523957 
L 117.362355 341.791519 
L 120.361307 337.577124 
L 123.360259 332.84745 
L 126.359211 327.572146 
L 129.358163 321.724949 
L 132.357115 315.284873 
L 135.356067 308.23742 
L 138.355018 300.575805 
L 141.35397 292.302135 
L 144.352922 283.428512 
L 147.351874 273.97801 
L 150.350826 263.985479 
L 154.849254 248.087124 
L 159.347682 231.291325 
L 165.345586 207.987293 
L 174.342442 172.798696 
L 178.84087 155.997028 
L 181.839822 145.392293 
L 184.838774 135.420617 
L 187.837726 126.21221 
L 190.836678 117.89111 
L 193.83563 110.572423 
L 195.335106 107.321857 
L 196.834582 104.359675 
L 198.334058 101.696609 
L 199.833534 99.342381 
L 201.33301 97.305637 
L 202.832486 95.593902 
L 204.331962 94.213528 
L 205.831438 93.169657 
L 207.330914 92.466191 
L 208.83039 92.105763 
L 210.329866 92.089725 
L 211.829342 92.418137 
L 213.328818 93.089767 
L 214.828294 94.1021 
L 216.32777 95.451353 
L 217.827246 97.132497 
L 219.326722 99.139291 
L 220.826198 101.464319 
L 222.325674 104.099034 
L 223.82515 107.033814 
L 225.324626 110.258019 
L 228.323578 117.527437 
L 231.32253 125.804361 
L 234.321482 134.974169 
L 237.320434 144.913176 
L 240.319386 155.4914 
L 244.817814 172.265012 
L 252.315194 201.531662 
L 259.812574 230.758724 
L 264.311002 247.578266 
L 268.80943 263.507997 
L 271.808382 273.5247 
L 274.807334 283.001293 
L 277.806286 291.902362 
L 280.805238 300.204302 
L 283.804189 307.89452 
L 286.803141 314.970468 
L 289.802093 321.438543 
L 292.801045 327.31291 
L 295.799997 332.614282 
L 298.798949 337.368701 
L 301.797901 341.606355 
L 304.796853 345.36045 
L 307.795805 348.666177 
L 310.794757 351.559771 
L 313.793709 354.077692 
L 316.792661 356.25592 
L 319.791613 358.129369 
L 322.790565 359.731422 
L 325.789517 361.093574 
L 328.788469 362.245181 
L 331.787421 363.2133 
L 336.285849 364.374755 
L 340.784277 365.25154 
L 345.282705 365.905226 
L 349.781133 366.386579 
L 349.781133 366.386579 
" style="fill:none;stroke:#282828;stroke-linecap:square;stroke-width:1.5;"/>
   </g>
   <g id="patch_20">
    <path d="M 36.465625 367.554375 
L 36.465625 41.394375 
" style="fill:none;stroke:#000000;stroke-linecap:square;stroke-linejoin:miter;stroke-width:0.8;"/>
   </g>
   <g id="patch_21">
    <path d="M 364.700919 367.554375 
L 364.700919 41.394375 
" style="fill:none;stroke:#000000;stroke-linecap:square;stroke-linejoin:miter;stroke-width:0.8;"/>
   </g>
   <g id="patch_22">
    <path d="M 36.465625 367.554375 
L 364.700919 367.554375 
" style="fill:none;stroke:#000000;stroke-linecap:square;stroke-linejoin:miter;stroke-width:0.8;"/>
   </g>
   <g id="patch_23">
    <path d="M 36.465625 41.394375 
L 364.700919 41.394375 
" style="fill:none;stroke:#000000;stroke-linecap:square;stroke-linejoin:miter;stroke-width:0.8;"/>
   </g>
   <g id="text_13">
    <!-- V14 Distribution  -->
    <defs>
     <path d="M 28.609375 0 
L 0.78125 72.90625 
L 11.078125 72.90625 
L 34.1875 11.53125 
L 57.328125 72.90625 
L 67.578125 72.90625 
L 39.796875 0 
z
" id="DejaVuSans-86"/>
     <path id="DejaVuSans-32"/>
     <path d="M 19.671875 64.796875 
L 19.671875 8.109375 
L 31.59375 8.109375 
Q 46.6875 8.109375 53.6875 14.9375 
Q 60.6875 21.78125 60.6875 36.53125 
Q 60.6875 51.171875 53.6875 57.984375 
Q 46.6875 64.796875 31.59375 64.796875 
z
M 9.8125 72.90625 
L 30.078125 72.90625 
Q 51.265625 72.90625 61.171875 64.09375 
Q 71.09375 55.28125 71.09375 36.53125 
Q 71.09375 17.671875 61.125 8.828125 
Q 51.171875 0 30.078125 0 
L 9.8125 0 
z
" id="DejaVuSans-68"/>
     <path d="M 9.421875 54.6875 
L 18.40625 54.6875 
L 18.40625 0 
L 9.421875 0 
z
M 9.421875 75.984375 
L 18.40625 75.984375 
L 18.40625 64.59375 
L 9.421875 64.59375 
z
" id="DejaVuSans-105"/>
     <path d="M 44.28125 53.078125 
L 44.28125 44.578125 
Q 40.484375 46.53125 36.375 47.5 
Q 32.28125 48.484375 27.875 48.484375 
Q 21.1875 48.484375 17.84375 46.4375 
Q 14.5 44.390625 14.5 40.28125 
Q 14.5 37.15625 16.890625 35.375 
Q 19.28125 33.59375 26.515625 31.984375 
L 29.59375 31.296875 
Q 39.15625 29.25 43.1875 25.515625 
Q 47.21875 21.78125 47.21875 15.09375 
Q 47.21875 7.46875 41.1875 3.015625 
Q 35.15625 -1.421875 24.609375 -1.421875 
Q 20.21875 -1.421875 15.453125 -0.5625 
Q 10.6875 0.296875 5.421875 2 
L 5.421875 11.28125 
Q 10.40625 8.6875 15.234375 7.390625 
Q 20.0625 6.109375 24.8125 6.109375 
Q 31.15625 6.109375 34.5625 8.28125 
Q 37.984375 10.453125 37.984375 14.40625 
Q 37.984375 18.0625 35.515625 20.015625 
Q 33.0625 21.96875 24.703125 23.78125 
L 21.578125 24.515625 
Q 13.234375 26.265625 9.515625 29.90625 
Q 5.8125 33.546875 5.8125 39.890625 
Q 5.8125 47.609375 11.28125 51.796875 
Q 16.75 56 26.8125 56 
Q 31.78125 56 36.171875 55.265625 
Q 40.578125 54.546875 44.28125 53.078125 
z
" id="DejaVuSans-115"/>
     <path d="M 18.3125 70.21875 
L 18.3125 54.6875 
L 36.8125 54.6875 
L 36.8125 47.703125 
L 18.3125 47.703125 
L 18.3125 18.015625 
Q 18.3125 11.328125 20.140625 9.421875 
Q 21.96875 7.515625 27.59375 7.515625 
L 36.8125 7.515625 
L 36.8125 0 
L 27.59375 0 
Q 17.1875 0 13.234375 3.875 
Q 9.28125 7.765625 9.28125 18.015625 
L 9.28125 47.703125 
L 2.6875 47.703125 
L 2.6875 54.6875 
L 9.28125 54.6875 
L 9.28125 70.21875 
z
" id="DejaVuSans-116"/>
     <path d="M 41.109375 46.296875 
Q 39.59375 47.171875 37.8125 47.578125 
Q 36.03125 48 33.890625 48 
Q 26.265625 48 22.1875 43.046875 
Q 18.109375 38.09375 18.109375 28.8125 
L 18.109375 0 
L 9.078125 0 
L 9.078125 54.6875 
L 18.109375 54.6875 
L 18.109375 46.1875 
Q 20.953125 51.171875 25.484375 53.578125 
Q 30.03125 56 36.53125 56 
Q 37.453125 56 38.578125 55.875 
Q 39.703125 55.765625 41.0625 55.515625 
z
" id="DejaVuSans-114"/>
     <path d="M 48.6875 27.296875 
Q 48.6875 37.203125 44.609375 42.84375 
Q 40.53125 48.484375 33.40625 48.484375 
Q 26.265625 48.484375 22.1875 42.84375 
Q 18.109375 37.203125 18.109375 27.296875 
Q 18.109375 17.390625 22.1875 11.75 
Q 26.265625 6.109375 33.40625 6.109375 
Q 40.53125 6.109375 44.609375 11.75 
Q 48.6875 17.390625 48.6875 27.296875 
z
M 18.109375 46.390625 
Q 20.953125 51.265625 25.265625 53.625 
Q 29.59375 56 35.59375 56 
Q 45.5625 56 51.78125 48.09375 
Q 58.015625 40.1875 58.015625 27.296875 
Q 58.015625 14.40625 51.78125 6.484375 
Q 45.5625 -1.421875 35.59375 -1.421875 
Q 29.59375 -1.421875 25.265625 0.953125 
Q 20.953125 3.328125 18.109375 8.203125 
L 18.109375 0 
L 9.078125 0 
L 9.078125 75.984375 
L 18.109375 75.984375 
z
" id="DejaVuSans-98"/>
     <path d="M 8.5 21.578125 
L 8.5 54.6875 
L 17.484375 54.6875 
L 17.484375 21.921875 
Q 17.484375 14.15625 20.5 10.265625 
Q 23.53125 6.390625 29.59375 6.390625 
Q 36.859375 6.390625 41.078125 11.03125 
Q 45.3125 15.671875 45.3125 23.6875 
L 45.3125 54.6875 
L 54.296875 54.6875 
L 54.296875 0 
L 45.3125 0 
L 45.3125 8.40625 
Q 42.046875 3.421875 37.71875 1 
Q 33.40625 -1.421875 27.6875 -1.421875 
Q 18.265625 -1.421875 13.375 4.4375 
Q 8.5 10.296875 8.5 21.578125 
z
M 31.109375 56 
z
" id="DejaVuSans-117"/>
     <path d="M 30.609375 48.390625 
Q 23.390625 48.390625 19.1875 42.75 
Q 14.984375 37.109375 14.984375 27.296875 
Q 14.984375 17.484375 19.15625 11.84375 
Q 23.34375 6.203125 30.609375 6.203125 
Q 37.796875 6.203125 41.984375 11.859375 
Q 46.1875 17.53125 46.1875 27.296875 
Q 46.1875 37.015625 41.984375 42.703125 
Q 37.796875 48.390625 30.609375 48.390625 
z
M 30.609375 56 
Q 42.328125 56 49.015625 48.375 
Q 55.71875 40.765625 55.71875 27.296875 
Q 55.71875 13.875 49.015625 6.21875 
Q 42.328125 -1.421875 30.609375 -1.421875 
Q 18.84375 -1.421875 12.171875 6.21875 
Q 5.515625 13.875 5.515625 27.296875 
Q 5.515625 40.765625 12.171875 48.375 
Q 18.84375 56 30.609375 56 
z
" id="DejaVuSans-111"/>
     <path d="M 54.890625 33.015625 
L 54.890625 0 
L 45.90625 0 
L 45.90625 32.71875 
Q 45.90625 40.484375 42.875 44.328125 
Q 39.84375 48.1875 33.796875 48.1875 
Q 26.515625 48.1875 22.3125 43.546875 
Q 18.109375 38.921875 18.109375 30.90625 
L 18.109375 0 
L 9.078125 0 
L 9.078125 54.6875 
L 18.109375 54.6875 
L 18.109375 46.1875 
Q 21.34375 51.125 25.703125 53.5625 
Q 30.078125 56 35.796875 56 
Q 45.21875 56 50.046875 50.171875 
Q 54.890625 44.34375 54.890625 33.015625 
z
" id="DejaVuSans-110"/>
    </defs>
    <g transform="translate(137.388741 18.597656)scale(0.15 -0.15)">
     <use xlink:href="#DejaVuSans-86"/>
     <use x="68.408203" xlink:href="#DejaVuSans-49"/>
     <use x="132.03125" xlink:href="#DejaVuSans-52"/>
     <use x="195.654297" xlink:href="#DejaVuSans-32"/>
     <use x="227.441406" xlink:href="#DejaVuSans-68"/>
     <use x="304.443359" xlink:href="#DejaVuSans-105"/>
     <use x="332.226562" xlink:href="#DejaVuSans-115"/>
     <use x="384.326172" xlink:href="#DejaVuSans-116"/>
     <use x="423.535156" xlink:href="#DejaVuSans-114"/>
     <use x="464.648438" xlink:href="#DejaVuSans-105"/>
     <use x="492.431641" xlink:href="#DejaVuSans-98"/>
     <use x="555.908203" xlink:href="#DejaVuSans-117"/>
     <use x="619.287109" xlink:href="#DejaVuSans-116"/>
     <use x="658.496094" xlink:href="#DejaVuSans-105"/>
     <use x="686.279297" xlink:href="#DejaVuSans-111"/>
     <use x="747.460938" xlink:href="#DejaVuSans-110"/>
     <use x="810.839844" xlink:href="#DejaVuSans-32"/>
    </g>
    <!--  (Fraud Transactions) -->
    <defs>
     <path d="M 31 75.875 
Q 24.46875 64.65625 21.28125 53.65625 
Q 18.109375 42.671875 18.109375 31.390625 
Q 18.109375 20.125 21.3125 9.0625 
Q 24.515625 -2 31 -13.1875 
L 23.1875 -13.1875 
Q 15.875 -1.703125 12.234375 9.375 
Q 8.59375 20.453125 8.59375 31.390625 
Q 8.59375 42.28125 12.203125 53.3125 
Q 15.828125 64.359375 23.1875 75.875 
z
" id="DejaVuSans-40"/>
     <path d="M 9.8125 72.90625 
L 51.703125 72.90625 
L 51.703125 64.59375 
L 19.671875 64.59375 
L 19.671875 43.109375 
L 48.578125 43.109375 
L 48.578125 34.8125 
L 19.671875 34.8125 
L 19.671875 0 
L 9.8125 0 
z
" id="DejaVuSans-70"/>
     <path d="M 34.28125 27.484375 
Q 23.390625 27.484375 19.1875 25 
Q 14.984375 22.515625 14.984375 16.5 
Q 14.984375 11.71875 18.140625 8.90625 
Q 21.296875 6.109375 26.703125 6.109375 
Q 34.1875 6.109375 38.703125 11.40625 
Q 43.21875 16.703125 43.21875 25.484375 
L 43.21875 27.484375 
z
M 52.203125 31.203125 
L 52.203125 0 
L 43.21875 0 
L 43.21875 8.296875 
Q 40.140625 3.328125 35.546875 0.953125 
Q 30.953125 -1.421875 24.3125 -1.421875 
Q 15.921875 -1.421875 10.953125 3.296875 
Q 6 8.015625 6 15.921875 
Q 6 25.140625 12.171875 29.828125 
Q 18.359375 34.515625 30.609375 34.515625 
L 43.21875 34.515625 
L 43.21875 35.40625 
Q 43.21875 41.609375 39.140625 45 
Q 35.0625 48.390625 27.6875 48.390625 
Q 23 48.390625 18.546875 47.265625 
Q 14.109375 46.140625 10.015625 43.890625 
L 10.015625 52.203125 
Q 14.9375 54.109375 19.578125 55.046875 
Q 24.21875 56 28.609375 56 
Q 40.484375 56 46.34375 49.84375 
Q 52.203125 43.703125 52.203125 31.203125 
z
" id="DejaVuSans-97"/>
     <path d="M 45.40625 46.390625 
L 45.40625 75.984375 
L 54.390625 75.984375 
L 54.390625 0 
L 45.40625 0 
L 45.40625 8.203125 
Q 42.578125 3.328125 38.25 0.953125 
Q 33.9375 -1.421875 27.875 -1.421875 
Q 17.96875 -1.421875 11.734375 6.484375 
Q 5.515625 14.40625 5.515625 27.296875 
Q 5.515625 40.1875 11.734375 48.09375 
Q 17.96875 56 27.875 56 
Q 33.9375 56 38.25 53.625 
Q 42.578125 51.265625 45.40625 46.390625 
z
M 14.796875 27.296875 
Q 14.796875 17.390625 18.875 11.75 
Q 22.953125 6.109375 30.078125 6.109375 
Q 37.203125 6.109375 41.296875 11.75 
Q 45.40625 17.390625 45.40625 27.296875 
Q 45.40625 37.203125 41.296875 42.84375 
Q 37.203125 48.484375 30.078125 48.484375 
Q 22.953125 48.484375 18.875 42.84375 
Q 14.796875 37.203125 14.796875 27.296875 
z
" id="DejaVuSans-100"/>
     <path d="M -0.296875 72.90625 
L 61.375 72.90625 
L 61.375 64.59375 
L 35.5 64.59375 
L 35.5 0 
L 25.59375 0 
L 25.59375 64.59375 
L -0.296875 64.59375 
z
" id="DejaVuSans-84"/>
     <path d="M 48.78125 52.59375 
L 48.78125 44.1875 
Q 44.96875 46.296875 41.140625 47.34375 
Q 37.3125 48.390625 33.40625 48.390625 
Q 24.65625 48.390625 19.8125 42.84375 
Q 14.984375 37.3125 14.984375 27.296875 
Q 14.984375 17.28125 19.8125 11.734375 
Q 24.65625 6.203125 33.40625 6.203125 
Q 37.3125 6.203125 41.140625 7.25 
Q 44.96875 8.296875 48.78125 10.40625 
L 48.78125 2.09375 
Q 45.015625 0.34375 40.984375 -0.53125 
Q 36.96875 -1.421875 32.421875 -1.421875 
Q 20.0625 -1.421875 12.78125 6.34375 
Q 5.515625 14.109375 5.515625 27.296875 
Q 5.515625 40.671875 12.859375 48.328125 
Q 20.21875 56 33.015625 56 
Q 37.15625 56 41.109375 55.140625 
Q 45.0625 54.296875 48.78125 52.59375 
z
" id="DejaVuSans-99"/>
     <path d="M 8.015625 75.875 
L 15.828125 75.875 
Q 23.140625 64.359375 26.78125 53.3125 
Q 30.421875 42.28125 30.421875 31.390625 
Q 30.421875 20.453125 26.78125 9.375 
Q 23.140625 -1.703125 15.828125 -13.1875 
L 8.015625 -13.1875 
Q 14.5 -2 17.703125 9.0625 
Q 20.90625 20.125 20.90625 31.390625 
Q 20.90625 42.671875 17.703125 53.65625 
Q 14.5 64.65625 8.015625 75.875 
z
" id="DejaVuSans-41"/>
    </defs>
    <g transform="translate(122.193038 35.394375)scale(0.15 -0.15)">
     <use xlink:href="#DejaVuSans-32"/>
     <use x="31.787109" xlink:href="#DejaVuSans-40"/>
     <use x="70.800781" xlink:href="#DejaVuSans-70"/>
     <use x="121.070312" xlink:href="#DejaVuSans-114"/>
     <use x="162.183594" xlink:href="#DejaVuSans-97"/>
     <use x="223.462891" xlink:href="#DejaVuSans-117"/>
     <use x="286.841797" xlink:href="#DejaVuSans-100"/>
     <use x="350.318359" xlink:href="#DejaVuSans-32"/>
     <use x="382.105469" xlink:href="#DejaVuSans-84"/>
     <use x="428.439453" xlink:href="#DejaVuSans-114"/>
     <use x="469.552734" xlink:href="#DejaVuSans-97"/>
     <use x="530.832031" xlink:href="#DejaVuSans-110"/>
     <use x="594.210938" xlink:href="#DejaVuSans-115"/>
     <use x="646.310547" xlink:href="#DejaVuSans-97"/>
     <use x="707.589844" xlink:href="#DejaVuSans-99"/>
     <use x="762.570312" xlink:href="#DejaVuSans-116"/>
     <use x="801.779297" xlink:href="#DejaVuSans-105"/>
     <use x="829.5625" xlink:href="#DejaVuSans-111"/>
     <use x="890.744141" xlink:href="#DejaVuSans-110"/>
     <use x="954.123047" xlink:href="#DejaVuSans-115"/>
     <use x="1006.222656" xlink:href="#DejaVuSans-41"/>
    </g>
   </g>
  </g>
  <g id="axes_2">
   <g id="patch_24">
    <path d="M 430.347978 367.554375 
L 758.583272 367.554375 
L 758.583272 41.394375 
L 430.347978 41.394375 
z
" style="fill:#ffffff;"/>
   </g>
   <g id="patch_25">
    <path clip-path="url(#p9420994d33)" d="M 488.12352 367.554375 
L 503.315249 367.554375 
L 503.315249 339.736891 
L 488.12352 339.736891 
z
" style="fill:#56f9bb;opacity:0.4;"/>
   </g>
   <g id="patch_26">
    <path clip-path="url(#p9420994d33)" d="M 503.315249 367.554375 
L 518.506979 367.554375 
L 518.506979 288.73817 
L 503.315249 288.73817 
z
" style="fill:#56f9bb;opacity:0.4;"/>
   </g>
   <g id="patch_27">
    <path clip-path="url(#p9420994d33)" d="M 518.506979 367.554375 
L 533.698708 367.554375 
L 533.698708 302.646912 
L 518.506979 302.646912 
z
" style="fill:#56f9bb;opacity:0.4;"/>
   </g>
   <g id="patch_28">
    <path clip-path="url(#p9420994d33)" d="M 533.698708 367.554375 
L 548.890437 367.554375 
L 548.890437 251.648192 
L 533.698708 251.648192 
z
" style="fill:#56f9bb;opacity:0.4;"/>
   </g>
   <g id="patch_29">
    <path clip-path="url(#p9420994d33)" d="M 548.890437 367.554375 
L 564.082166 367.554375 
L 564.082166 316.555654 
L 548.890437 316.555654 
z
" style="fill:#56f9bb;opacity:0.4;"/>
   </g>
   <g id="patch_30">
    <path clip-path="url(#p9420994d33)" d="M 564.082166 367.554375 
L 579.273896 367.554375 
L 579.273896 260.920686 
L 564.082166 260.920686 
z
" style="fill:#56f9bb;opacity:0.4;"/>
   </g>
   <g id="patch_31">
    <path clip-path="url(#p9420994d33)" d="M 579.273896 367.554375 
L 594.465625 367.554375 
L 594.465625 219.19446 
L 579.273896 219.19446 
z
" style="fill:#56f9bb;opacity:0.4;"/>
   </g>
   <g id="patch_32">
    <path clip-path="url(#p9420994d33)" d="M 594.465625 367.554375 
L 609.657354 367.554375 
L 609.657354 158.923245 
L 594.465625 158.923245 
z
" style="fill:#56f9bb;opacity:0.4;"/>
   </g>
   <g id="patch_33">
    <path clip-path="url(#p9420994d33)" d="M 609.657354 367.554375 
L 624.849084 367.554375 
L 624.849084 70.834546 
L 609.657354 70.834546 
z
" style="fill:#56f9bb;opacity:0.4;"/>
   </g>
   <g id="patch_34">
    <path clip-path="url(#p9420994d33)" d="M 624.849084 367.554375 
L 640.040813 367.554375 
L 640.040813 66.198298 
L 624.849084 66.198298 
z
" style="fill:#56f9bb;opacity:0.4;"/>
   </g>
   <g id="patch_35">
    <path clip-path="url(#p9420994d33)" d="M 640.040813 367.554375 
L 655.232542 367.554375 
L 655.232542 56.925804 
L 640.040813 56.925804 
z
" style="fill:#56f9bb;opacity:0.4;"/>
   </g>
   <g id="patch_36">
    <path clip-path="url(#p9420994d33)" d="M 655.232542 367.554375 
L 670.424271 367.554375 
L 670.424271 177.468234 
L 655.232542 177.468234 
z
" style="fill:#56f9bb;opacity:0.4;"/>
   </g>
   <g id="patch_37">
    <path clip-path="url(#p9420994d33)" d="M 670.424271 367.554375 
L 685.616001 367.554375 
L 685.616001 121.833266 
L 670.424271 121.833266 
z
" style="fill:#56f9bb;opacity:0.4;"/>
   </g>
   <g id="patch_38">
    <path clip-path="url(#p9420994d33)" d="M 685.616001 367.554375 
L 700.80773 367.554375 
L 700.80773 233.103202 
L 685.616001 233.103202 
z
" style="fill:#56f9bb;opacity:0.4;"/>
   </g>
   <g id="matplotlib.axis_3">
    <g id="xtick_7">
     <g id="line2d_15">
      <g>
       <use style="stroke:#000000;stroke-width:0.8;" x="474.167493" xlink:href="#m1345c750f1" y="367.554375"/>
      </g>
     </g>
     <g id="text_14">
      <!-- −20 -->
      <g transform="translate(463.615149 382.152812)scale(0.1 -0.1)">
       <use xlink:href="#DejaVuSans-8722"/>
       <use x="83.789062" xlink:href="#DejaVuSans-50"/>
       <use x="147.412109" xlink:href="#DejaVuSans-48"/>
      </g>
     </g>
    </g>
    <g id="xtick_8">
     <g id="line2d_16">
      <g>
       <use style="stroke:#000000;stroke-width:0.8;" x="527.180418" xlink:href="#m1345c750f1" y="367.554375"/>
      </g>
     </g>
     <g id="text_15">
      <!-- −15 -->
      <g transform="translate(516.628074 382.152812)scale(0.1 -0.1)">
       <use xlink:href="#DejaVuSans-8722"/>
       <use x="83.789062" xlink:href="#DejaVuSans-49"/>
       <use x="147.412109" xlink:href="#DejaVuSans-53"/>
      </g>
     </g>
    </g>
    <g id="xtick_9">
     <g id="line2d_17">
      <g>
       <use style="stroke:#000000;stroke-width:0.8;" x="580.193344" xlink:href="#m1345c750f1" y="367.554375"/>
      </g>
     </g>
     <g id="text_16">
      <!-- −10 -->
      <g transform="translate(569.641 382.152812)scale(0.1 -0.1)">
       <use xlink:href="#DejaVuSans-8722"/>
       <use x="83.789062" xlink:href="#DejaVuSans-49"/>
       <use x="147.412109" xlink:href="#DejaVuSans-48"/>
      </g>
     </g>
    </g>
    <g id="xtick_10">
     <g id="line2d_18">
      <g>
       <use style="stroke:#000000;stroke-width:0.8;" x="633.206269" xlink:href="#m1345c750f1" y="367.554375"/>
      </g>
     </g>
     <g id="text_17">
      <!-- −5 -->
      <g transform="translate(625.835175 382.152812)scale(0.1 -0.1)">
       <use xlink:href="#DejaVuSans-8722"/>
       <use x="83.789062" xlink:href="#DejaVuSans-53"/>
      </g>
     </g>
    </g>
    <g id="xtick_11">
     <g id="line2d_19">
      <g>
       <use style="stroke:#000000;stroke-width:0.8;" x="686.219195" xlink:href="#m1345c750f1" y="367.554375"/>
      </g>
     </g>
     <g id="text_18">
      <!-- 0 -->
      <g transform="translate(683.037945 382.152812)scale(0.1 -0.1)">
       <use xlink:href="#DejaVuSans-48"/>
      </g>
     </g>
    </g>
    <g id="xtick_12">
     <g id="line2d_20">
      <g>
       <use style="stroke:#000000;stroke-width:0.8;" x="739.23212" xlink:href="#m1345c750f1" y="367.554375"/>
      </g>
     </g>
     <g id="text_19">
      <!-- 5 -->
      <g transform="translate(736.05087 382.152812)scale(0.1 -0.1)">
       <use xlink:href="#DejaVuSans-53"/>
      </g>
     </g>
    </g>
   </g>
   <g id="matplotlib.axis_4">
    <g id="ytick_7">
     <g id="line2d_21">
      <g>
       <use style="stroke:#000000;stroke-width:0.8;" x="430.347978" xlink:href="#m032b9545d6" y="367.554375"/>
      </g>
     </g>
     <g id="text_20">
      <!-- 0.00 -->
      <g transform="translate(401.082353 371.353594)scale(0.1 -0.1)">
       <use xlink:href="#DejaVuSans-48"/>
       <use x="63.623047" xlink:href="#DejaVuSans-46"/>
       <use x="95.410156" xlink:href="#DejaVuSans-48"/>
       <use x="159.033203" xlink:href="#DejaVuSans-48"/>
      </g>
     </g>
    </g>
    <g id="ytick_8">
     <g id="line2d_22">
      <g>
       <use style="stroke:#000000;stroke-width:0.8;" x="430.347978" xlink:href="#m032b9545d6" y="302.187588"/>
      </g>
     </g>
     <g id="text_21">
      <!-- 0.02 -->
      <g transform="translate(401.082353 305.986806)scale(0.1 -0.1)">
       <use xlink:href="#DejaVuSans-48"/>
       <use x="63.623047" xlink:href="#DejaVuSans-46"/>
       <use x="95.410156" xlink:href="#DejaVuSans-48"/>
       <use x="159.033203" xlink:href="#DejaVuSans-50"/>
      </g>
     </g>
    </g>
    <g id="ytick_9">
     <g id="line2d_23">
      <g>
       <use style="stroke:#000000;stroke-width:0.8;" x="430.347978" xlink:href="#m032b9545d6" y="236.8208"/>
      </g>
     </g>
     <g id="text_22">
      <!-- 0.04 -->
      <g transform="translate(401.082353 240.620019)scale(0.1 -0.1)">
       <use xlink:href="#DejaVuSans-48"/>
       <use x="63.623047" xlink:href="#DejaVuSans-46"/>
       <use x="95.410156" xlink:href="#DejaVuSans-48"/>
       <use x="159.033203" xlink:href="#DejaVuSans-52"/>
      </g>
     </g>
    </g>
    <g id="ytick_10">
     <g id="line2d_24">
      <g>
       <use style="stroke:#000000;stroke-width:0.8;" x="430.347978" xlink:href="#m032b9545d6" y="171.454013"/>
      </g>
     </g>
     <g id="text_23">
      <!-- 0.06 -->
      <g transform="translate(401.082353 175.253232)scale(0.1 -0.1)">
       <use xlink:href="#DejaVuSans-48"/>
       <use x="63.623047" xlink:href="#DejaVuSans-46"/>
       <use x="95.410156" xlink:href="#DejaVuSans-48"/>
       <use x="159.033203" xlink:href="#DejaVuSans-54"/>
      </g>
     </g>
    </g>
    <g id="ytick_11">
     <g id="line2d_25">
      <g>
       <use style="stroke:#000000;stroke-width:0.8;" x="430.347978" xlink:href="#m032b9545d6" y="106.087226"/>
      </g>
     </g>
     <g id="text_24">
      <!-- 0.08 -->
      <g transform="translate(401.082353 109.886445)scale(0.1 -0.1)">
       <use xlink:href="#DejaVuSans-48"/>
       <use x="63.623047" xlink:href="#DejaVuSans-46"/>
       <use x="95.410156" xlink:href="#DejaVuSans-48"/>
       <use x="159.033203" xlink:href="#DejaVuSans-56"/>
      </g>
     </g>
    </g>
   </g>
   <g id="line2d_26">
    <path clip-path="url(#p9420994d33)" d="M 446.821531 367.410822 
L 451.471738 367.347043 
L 456.121946 367.088142 
L 460.772154 366.512983 
L 463.097258 366.044419 
L 465.422361 365.412747 
L 467.747465 364.582444 
L 470.072569 363.517195 
L 472.397673 362.182186 
L 474.722777 360.54666 
L 477.047881 358.586512 
L 479.372984 356.286722 
L 481.698088 353.643379 
L 484.023192 350.665149 
L 486.348296 347.374037 
L 488.6734 343.805374 
L 493.323608 336.037216 
L 502.624023 319.813405 
L 507.274231 312.394288 
L 509.599335 309.01133 
L 511.924438 305.861951 
L 514.249542 302.937915 
L 516.574646 300.220034 
L 518.89975 297.685314 
L 521.224854 295.315413 
L 523.549958 293.104837 
L 525.875061 291.066989 
L 528.200165 289.236268 
L 530.525269 287.665004 
L 532.850373 286.414903 
L 535.175477 285.543953 
L 537.500581 285.090825 
L 539.825685 285.059698 
L 542.150788 285.40866 
L 544.475892 286.044387 
L 549.1261 287.569217 
L 551.451204 288.076153 
L 553.776308 288.143164 
L 556.101411 287.587969 
L 558.426515 286.265706 
L 560.751619 284.080181 
L 563.076723 280.987648 
L 565.401827 276.99331 
L 567.726931 272.142092 
L 570.052035 266.50623 
L 572.377138 260.17252 
L 574.702242 253.231658 
L 577.027346 245.771262 
L 581.677554 229.612459 
L 586.327762 212.292763 
L 602.603488 150.124899 
L 607.253696 133.457367 
L 611.903904 117.729027 
L 614.229008 110.322766 
L 616.554112 103.294524 
L 618.879215 96.704067 
L 621.204319 90.610805 
L 623.529423 85.071706 
L 625.854527 80.142157 
L 628.179631 75.880095 
L 630.504735 72.352531 
L 632.829839 69.642424 
L 635.154942 67.853132 
L 637.480046 67.107591 
L 639.80515 67.540076 
L 642.130254 69.279847 
L 644.455358 72.427914 
L 646.780462 77.0302 
L 649.105565 83.052039 
L 651.430669 90.359859 
L 653.755773 98.715593 
L 658.405981 117.180788 
L 660.731085 126.479364 
L 663.056189 135.303615 
L 665.381292 143.364841 
L 667.706396 150.51276 
L 670.0315 156.764554 
L 672.356604 162.309062 
L 677.006812 172.727323 
L 679.331915 178.515041 
L 681.657019 185.288198 
L 683.982123 193.388921 
L 686.307227 203.011244 
L 688.632331 214.175469 
L 690.957435 226.728437 
L 693.282539 240.36758 
L 702.582954 297.056495 
L 704.908058 309.604562 
L 707.233162 320.868737 
L 709.558266 330.703103 
L 711.883369 339.060565 
L 714.208473 345.978409 
L 716.533577 351.558706 
L 718.858681 355.947014 
L 721.183785 359.312128 
L 723.508889 361.828804 
L 725.833992 363.664472 
L 728.159096 364.970218 
L 730.4842 365.875703 
L 732.809304 366.487343 
L 735.134408 366.888897 
L 739.784616 367.29687 
L 742.109719 367.379652 
L 742.109719 367.379652 
" style="fill:none;stroke:#56f9bb;stroke-linecap:square;stroke-width:1.5;"/>
   </g>
   <g id="line2d_27">
    <path clip-path="url(#p9420994d33)" d="M 445.267764 367.024073 
L 454.26462 366.559044 
L 460.262524 366.067659 
L 466.260428 365.36631 
L 470.758856 364.658928 
L 475.257284 363.754625 
L 479.755712 362.609236 
L 484.25414 361.171947 
L 487.253092 360.023443 
L 490.252044 358.701092 
L 493.250996 357.184993 
L 496.249948 355.454126 
L 499.2489 353.486497 
L 502.247852 351.259321 
L 505.246804 348.749264 
L 508.245756 345.932722 
L 511.244708 342.786156 
L 514.24366 339.286475 
L 517.242612 335.411463 
L 520.241564 331.140259 
L 523.240515 326.453864 
L 526.239467 321.335692 
L 529.238419 315.772139 
L 532.237371 309.753166 
L 535.236323 303.272885 
L 538.235275 296.330131 
L 541.234227 288.929015 
L 544.233179 281.079421 
L 548.731607 268.501166 
L 553.230035 255.034105 
L 557.728463 240.795904 
L 563.726367 220.882421 
L 583.219555 154.787752 
L 587.717983 140.806564 
L 590.716935 132.0708 
L 593.715887 123.901787 
L 596.714839 116.380579 
L 599.713791 109.583592 
L 602.712743 103.581315 
L 605.711695 98.437096 
L 607.211171 96.204325 
L 608.710647 94.206028 
L 610.210123 92.447642 
L 611.709599 90.933971 
L 613.209075 89.669169 
L 614.708551 88.656719 
L 616.208027 87.899416 
L 617.707503 87.399356 
L 619.206979 87.157923 
L 620.706455 87.175787 
L 622.205931 87.4529 
L 623.705407 87.988492 
L 625.204883 88.781079 
L 626.704359 89.82847 
L 628.203835 91.127773 
L 629.703311 92.675413 
L 631.202787 94.467145 
L 632.702263 96.498075 
L 634.201739 98.762682 
L 635.701215 101.254844 
L 638.700167 106.894496 
L 641.699119 113.357113 
L 644.698071 120.575141 
L 647.697023 128.474565 
L 650.695975 136.976168 
L 655.194403 150.675145 
L 659.692831 165.251678 
L 665.690735 185.547241 
L 679.186018 231.635549 
L 683.684446 246.277492 
L 688.182874 260.23937 
L 692.681302 273.381273 
L 697.17973 285.599025 
L 700.178682 293.19506 
L 703.177634 300.336257 
L 706.176586 307.016078 
L 709.175538 313.233476 
L 712.17449 318.992372 
L 715.173442 324.301088 
L 718.172394 329.171762 
L 721.171346 333.619765 
L 724.170298 337.663126 
L 727.16925 341.321967 
L 730.168202 344.61798 
L 733.167154 347.573936 
L 736.166106 350.213228 
L 739.165058 352.559478 
L 742.16401 354.636174 
L 743.663486 355.580667 
L 743.663486 355.580667 
" style="fill:none;stroke:#282828;stroke-linecap:square;stroke-width:1.5;"/>
   </g>
   <g id="patch_39">
    <path d="M 430.347978 367.554375 
L 430.347978 41.394375 
" style="fill:none;stroke:#000000;stroke-linecap:square;stroke-linejoin:miter;stroke-width:0.8;"/>
   </g>
   <g id="patch_40">
    <path d="M 758.583272 367.554375 
L 758.583272 41.394375 
" style="fill:none;stroke:#000000;stroke-linecap:square;stroke-linejoin:miter;stroke-width:0.8;"/>
   </g>
   <g id="patch_41">
    <path d="M 430.347978 367.554375 
L 758.583272 367.554375 
" style="fill:none;stroke:#000000;stroke-linecap:square;stroke-linejoin:miter;stroke-width:0.8;"/>
   </g>
   <g id="patch_42">
    <path d="M 430.347978 41.394375 
L 758.583272 41.394375 
" style="fill:none;stroke:#000000;stroke-linecap:square;stroke-linejoin:miter;stroke-width:0.8;"/>
   </g>
   <g id="text_25">
    <!-- V12 Distribution  -->
    <g transform="translate(531.271094 18.597656)scale(0.15 -0.15)">
     <use xlink:href="#DejaVuSans-86"/>
     <use x="68.408203" xlink:href="#DejaVuSans-49"/>
     <use x="132.03125" xlink:href="#DejaVuSans-50"/>
     <use x="195.654297" xlink:href="#DejaVuSans-32"/>
     <use x="227.441406" xlink:href="#DejaVuSans-68"/>
     <use x="304.443359" xlink:href="#DejaVuSans-105"/>
     <use x="332.226562" xlink:href="#DejaVuSans-115"/>
     <use x="384.326172" xlink:href="#DejaVuSans-116"/>
     <use x="423.535156" xlink:href="#DejaVuSans-114"/>
     <use x="464.648438" xlink:href="#DejaVuSans-105"/>
     <use x="492.431641" xlink:href="#DejaVuSans-98"/>
     <use x="555.908203" xlink:href="#DejaVuSans-117"/>
     <use x="619.287109" xlink:href="#DejaVuSans-116"/>
     <use x="658.496094" xlink:href="#DejaVuSans-105"/>
     <use x="686.279297" xlink:href="#DejaVuSans-111"/>
     <use x="747.460938" xlink:href="#DejaVuSans-110"/>
     <use x="810.839844" xlink:href="#DejaVuSans-32"/>
    </g>
    <!--  (Fraud Transactions) -->
    <g transform="translate(516.075391 35.394375)scale(0.15 -0.15)">
     <use xlink:href="#DejaVuSans-32"/>
     <use x="31.787109" xlink:href="#DejaVuSans-40"/>
     <use x="70.800781" xlink:href="#DejaVuSans-70"/>
     <use x="121.070312" xlink:href="#DejaVuSans-114"/>
     <use x="162.183594" xlink:href="#DejaVuSans-97"/>
     <use x="223.462891" xlink:href="#DejaVuSans-117"/>
     <use x="286.841797" xlink:href="#DejaVuSans-100"/>
     <use x="350.318359" xlink:href="#DejaVuSans-32"/>
     <use x="382.105469" xlink:href="#DejaVuSans-84"/>
     <use x="428.439453" xlink:href="#DejaVuSans-114"/>
     <use x="469.552734" xlink:href="#DejaVuSans-97"/>
     <use x="530.832031" xlink:href="#DejaVuSans-110"/>
     <use x="594.210938" xlink:href="#DejaVuSans-115"/>
     <use x="646.310547" xlink:href="#DejaVuSans-97"/>
     <use x="707.589844" xlink:href="#DejaVuSans-99"/>
     <use x="762.570312" xlink:href="#DejaVuSans-116"/>
     <use x="801.779297" xlink:href="#DejaVuSans-105"/>
     <use x="829.5625" xlink:href="#DejaVuSans-111"/>
     <use x="890.744141" xlink:href="#DejaVuSans-110"/>
     <use x="954.123047" xlink:href="#DejaVuSans-115"/>
     <use x="1006.222656" xlink:href="#DejaVuSans-41"/>
    </g>
   </g>
  </g>
  <g id="axes_3">
   <g id="patch_43">
    <path d="M 824.230331 367.554375 
L 1152.465625 367.554375 
L 1152.465625 41.394375 
L 824.230331 41.394375 
z
" style="fill:#ffffff;"/>
   </g>
   <g id="patch_44">
    <path clip-path="url(#p6f0173f2aa)" d="M 873.332954 367.554375 
L 883.788866 367.554375 
L 883.788866 360.158457 
L 873.332954 360.158457 
z
" style="fill:#c5b3f9;opacity:0.4;"/>
   </g>
   <g id="patch_45">
    <path clip-path="url(#p6f0173f2aa)" d="M 883.788866 367.554375 
L 894.244777 367.554375 
L 894.244777 349.064579 
L 883.788866 349.064579 
z
" style="fill:#c5b3f9;opacity:0.4;"/>
   </g>
   <g id="patch_46">
    <path clip-path="url(#p6f0173f2aa)" d="M 894.244777 367.554375 
L 904.700688 367.554375 
L 904.700688 363.856416 
L 894.244777 363.856416 
z
" style="fill:#c5b3f9;opacity:0.4;"/>
   </g>
   <g id="patch_47">
    <path clip-path="url(#p6f0173f2aa)" d="M 904.700688 367.554375 
L 915.156599 367.554375 
L 915.156599 363.856416 
L 904.700688 363.856416 
z
" style="fill:#c5b3f9;opacity:0.4;"/>
   </g>
   <g id="patch_48">
    <path clip-path="url(#p6f0173f2aa)" d="M 915.156599 367.554375 
L 925.612511 367.554375 
L 925.612511 360.158457 
L 915.156599 360.158457 
z
" style="fill:#c5b3f9;opacity:0.4;"/>
   </g>
   <g id="patch_49">
    <path clip-path="url(#p6f0173f2aa)" d="M 925.612511 367.554375 
L 936.068422 367.554375 
L 936.068422 363.856416 
L 925.612511 363.856416 
z
" style="fill:#c5b3f9;opacity:0.4;"/>
   </g>
   <g id="patch_50">
    <path clip-path="url(#p6f0173f2aa)" d="M 936.068422 367.554375 
L 946.524333 367.554375 
L 946.524333 341.668661 
L 936.068422 341.668661 
z
" style="fill:#c5b3f9;opacity:0.4;"/>
   </g>
   <g id="patch_51">
    <path clip-path="url(#p6f0173f2aa)" d="M 946.524333 367.554375 
L 956.980244 367.554375 
L 956.980244 323.178865 
L 946.524333 323.178865 
z
" style="fill:#c5b3f9;opacity:0.4;"/>
   </g>
   <g id="patch_52">
    <path clip-path="url(#p6f0173f2aa)" d="M 956.980244 367.554375 
L 967.436155 367.554375 
L 967.436155 267.709477 
L 956.980244 267.709477 
z
" style="fill:#c5b3f9;opacity:0.4;"/>
   </g>
   <g id="patch_53">
    <path clip-path="url(#p6f0173f2aa)" d="M 967.436155 367.554375 
L 977.892067 367.554375 
L 977.892067 300.99111 
L 967.436155 300.99111 
z
" style="fill:#c5b3f9;opacity:0.4;"/>
   </g>
   <g id="patch_54">
    <path clip-path="url(#p6f0173f2aa)" d="M 977.892067 367.554375 
L 988.347978 367.554375 
L 988.347978 330.574783 
L 977.892067 330.574783 
z
" style="fill:#c5b3f9;opacity:0.4;"/>
   </g>
   <g id="patch_55">
    <path clip-path="url(#p6f0173f2aa)" d="M 988.347978 367.554375 
L 998.803889 367.554375 
L 998.803889 345.36662 
L 988.347978 345.36662 
z
" style="fill:#c5b3f9;opacity:0.4;"/>
   </g>
   <g id="patch_56">
    <path clip-path="url(#p6f0173f2aa)" d="M 998.803889 367.554375 
L 1009.2598 367.554375 
L 1009.2598 245.521722 
L 998.803889 245.521722 
z
" style="fill:#c5b3f9;opacity:0.4;"/>
   </g>
   <g id="patch_57">
    <path clip-path="url(#p6f0173f2aa)" d="M 1009.2598 367.554375 
L 1019.715712 367.554375 
L 1019.715712 249.219681 
L 1009.2598 249.219681 
z
" style="fill:#c5b3f9;opacity:0.4;"/>
   </g>
   <g id="patch_58">
    <path clip-path="url(#p6f0173f2aa)" d="M 1019.715712 367.554375 
L 1030.171623 367.554375 
L 1030.171623 156.770702 
L 1019.715712 156.770702 
z
" style="fill:#c5b3f9;opacity:0.4;"/>
   </g>
   <g id="patch_59">
    <path clip-path="url(#p6f0173f2aa)" d="M 1030.171623 367.554375 
L 1040.627534 367.554375 
L 1040.627534 56.925804 
L 1030.171623 56.925804 
z
" style="fill:#c5b3f9;opacity:0.4;"/>
   </g>
   <g id="patch_60">
    <path clip-path="url(#p6f0173f2aa)" d="M 1040.627534 367.554375 
L 1051.083445 367.554375 
L 1051.083445 90.207436 
L 1040.627534 90.207436 
z
" style="fill:#c5b3f9;opacity:0.4;"/>
   </g>
   <g id="patch_61">
    <path clip-path="url(#p6f0173f2aa)" d="M 1051.083445 367.554375 
L 1061.539357 367.554375 
L 1061.539357 212.240089 
L 1051.083445 212.240089 
z
" style="fill:#c5b3f9;opacity:0.4;"/>
   </g>
   <g id="patch_62">
    <path clip-path="url(#p6f0173f2aa)" d="M 1061.539357 367.554375 
L 1071.995268 367.554375 
L 1071.995268 212.240089 
L 1061.539357 212.240089 
z
" style="fill:#c5b3f9;opacity:0.4;"/>
   </g>
   <g id="patch_63">
    <path clip-path="url(#p6f0173f2aa)" d="M 1071.995268 367.554375 
L 1082.451179 367.554375 
L 1082.451179 264.011518 
L 1071.995268 264.011518 
z
" style="fill:#c5b3f9;opacity:0.4;"/>
   </g>
   <g id="patch_64">
    <path clip-path="url(#p6f0173f2aa)" d="M 1082.451179 367.554375 
L 1092.90709 367.554375 
L 1092.90709 349.064579 
L 1082.451179 349.064579 
z
" style="fill:#c5b3f9;opacity:0.4;"/>
   </g>
   <g id="patch_65">
    <path clip-path="url(#p6f0173f2aa)" d="M 1092.90709 367.554375 
L 1103.363002 367.554375 
L 1103.363002 360.158457 
L 1092.90709 360.158457 
z
" style="fill:#c5b3f9;opacity:0.4;"/>
   </g>
   <g id="matplotlib.axis_5">
    <g id="xtick_13">
     <g id="line2d_28">
      <g>
       <use style="stroke:#000000;stroke-width:0.8;" x="829.83626" xlink:href="#m1345c750f1" y="367.554375"/>
      </g>
     </g>
     <g id="text_26">
      <!-- −30 -->
      <defs>
       <path d="M 40.578125 39.3125 
Q 47.65625 37.796875 51.625 33 
Q 55.609375 28.21875 55.609375 21.1875 
Q 55.609375 10.40625 48.1875 4.484375 
Q 40.765625 -1.421875 27.09375 -1.421875 
Q 22.515625 -1.421875 17.65625 -0.515625 
Q 12.796875 0.390625 7.625 2.203125 
L 7.625 11.71875 
Q 11.71875 9.328125 16.59375 8.109375 
Q 21.484375 6.890625 26.8125 6.890625 
Q 36.078125 6.890625 40.9375 10.546875 
Q 45.796875 14.203125 45.796875 21.1875 
Q 45.796875 27.640625 41.28125 31.265625 
Q 36.765625 34.90625 28.71875 34.90625 
L 20.21875 34.90625 
L 20.21875 43.015625 
L 29.109375 43.015625 
Q 36.375 43.015625 40.234375 45.921875 
Q 44.09375 48.828125 44.09375 54.296875 
Q 44.09375 59.90625 40.109375 62.90625 
Q 36.140625 65.921875 28.71875 65.921875 
Q 24.65625 65.921875 20.015625 65.03125 
Q 15.375 64.15625 9.8125 62.3125 
L 9.8125 71.09375 
Q 15.4375 72.65625 20.34375 73.4375 
Q 25.25 74.21875 29.59375 74.21875 
Q 40.828125 74.21875 47.359375 69.109375 
Q 53.90625 64.015625 53.90625 55.328125 
Q 53.90625 49.265625 50.4375 45.09375 
Q 46.96875 40.921875 40.578125 39.3125 
z
" id="DejaVuSans-51"/>
      </defs>
      <g transform="translate(819.283916 382.152812)scale(0.1 -0.1)">
       <use xlink:href="#DejaVuSans-8722"/>
       <use x="83.789062" xlink:href="#DejaVuSans-51"/>
       <use x="147.412109" xlink:href="#DejaVuSans-48"/>
      </g>
     </g>
    </g>
    <g id="xtick_14">
     <g id="line2d_29">
      <g>
       <use style="stroke:#000000;stroke-width:0.8;" x="870.023625" xlink:href="#m1345c750f1" y="367.554375"/>
      </g>
     </g>
     <g id="text_27">
      <!-- −25 -->
      <g transform="translate(859.471281 382.152812)scale(0.1 -0.1)">
       <use xlink:href="#DejaVuSans-8722"/>
       <use x="83.789062" xlink:href="#DejaVuSans-50"/>
       <use x="147.412109" xlink:href="#DejaVuSans-53"/>
      </g>
     </g>
    </g>
    <g id="xtick_15">
     <g id="line2d_30">
      <g>
       <use style="stroke:#000000;stroke-width:0.8;" x="910.21099" xlink:href="#m1345c750f1" y="367.554375"/>
      </g>
     </g>
     <g id="text_28">
      <!-- −20 -->
      <g transform="translate(899.658646 382.152812)scale(0.1 -0.1)">
       <use xlink:href="#DejaVuSans-8722"/>
       <use x="83.789062" xlink:href="#DejaVuSans-50"/>
       <use x="147.412109" xlink:href="#DejaVuSans-48"/>
      </g>
     </g>
    </g>
    <g id="xtick_16">
     <g id="line2d_31">
      <g>
       <use style="stroke:#000000;stroke-width:0.8;" x="950.398355" xlink:href="#m1345c750f1" y="367.554375"/>
      </g>
     </g>
     <g id="text_29">
      <!-- −15 -->
      <g transform="translate(939.846012 382.152812)scale(0.1 -0.1)">
       <use xlink:href="#DejaVuSans-8722"/>
       <use x="83.789062" xlink:href="#DejaVuSans-49"/>
       <use x="147.412109" xlink:href="#DejaVuSans-53"/>
      </g>
     </g>
    </g>
    <g id="xtick_17">
     <g id="line2d_32">
      <g>
       <use style="stroke:#000000;stroke-width:0.8;" x="990.58572" xlink:href="#m1345c750f1" y="367.554375"/>
      </g>
     </g>
     <g id="text_30">
      <!-- −10 -->
      <g transform="translate(980.033377 382.152812)scale(0.1 -0.1)">
       <use xlink:href="#DejaVuSans-8722"/>
       <use x="83.789062" xlink:href="#DejaVuSans-49"/>
       <use x="147.412109" xlink:href="#DejaVuSans-48"/>
      </g>
     </g>
    </g>
    <g id="xtick_18">
     <g id="line2d_33">
      <g>
       <use style="stroke:#000000;stroke-width:0.8;" x="1030.773086" xlink:href="#m1345c750f1" y="367.554375"/>
      </g>
     </g>
     <g id="text_31">
      <!-- −5 -->
      <g transform="translate(1023.401992 382.152812)scale(0.1 -0.1)">
       <use xlink:href="#DejaVuSans-8722"/>
       <use x="83.789062" xlink:href="#DejaVuSans-53"/>
      </g>
     </g>
    </g>
    <g id="xtick_19">
     <g id="line2d_34">
      <g>
       <use style="stroke:#000000;stroke-width:0.8;" x="1070.960451" xlink:href="#m1345c750f1" y="367.554375"/>
      </g>
     </g>
     <g id="text_32">
      <!-- 0 -->
      <g transform="translate(1067.779201 382.152812)scale(0.1 -0.1)">
       <use xlink:href="#DejaVuSans-48"/>
      </g>
     </g>
    </g>
    <g id="xtick_20">
     <g id="line2d_35">
      <g>
       <use style="stroke:#000000;stroke-width:0.8;" x="1111.147816" xlink:href="#m1345c750f1" y="367.554375"/>
      </g>
     </g>
     <g id="text_33">
      <!-- 5 -->
      <g transform="translate(1107.966566 382.152812)scale(0.1 -0.1)">
       <use xlink:href="#DejaVuSans-53"/>
      </g>
     </g>
    </g>
    <g id="xtick_21">
     <g id="line2d_36">
      <g>
       <use style="stroke:#000000;stroke-width:0.8;" x="1151.335181" xlink:href="#m1345c750f1" y="367.554375"/>
      </g>
     </g>
     <g id="text_34">
      <!-- 10 -->
      <g transform="translate(1144.972681 382.152812)scale(0.1 -0.1)">
       <use xlink:href="#DejaVuSans-49"/>
       <use x="63.623047" xlink:href="#DejaVuSans-48"/>
      </g>
     </g>
    </g>
   </g>
   <g id="matplotlib.axis_6">
    <g id="ytick_12">
     <g id="line2d_37">
      <g>
       <use style="stroke:#000000;stroke-width:0.8;" x="824.230331" xlink:href="#m032b9545d6" y="367.554375"/>
      </g>
     </g>
     <g id="text_35">
      <!-- 0.00 -->
      <g transform="translate(794.964706 371.353594)scale(0.1 -0.1)">
       <use xlink:href="#DejaVuSans-48"/>
       <use x="63.623047" xlink:href="#DejaVuSans-46"/>
       <use x="95.410156" xlink:href="#DejaVuSans-48"/>
       <use x="159.033203" xlink:href="#DejaVuSans-48"/>
      </g>
     </g>
    </g>
    <g id="ytick_13">
     <g id="line2d_38">
      <g>
       <use style="stroke:#000000;stroke-width:0.8;" x="824.230331" xlink:href="#m032b9545d6" y="320.217502"/>
      </g>
     </g>
     <g id="text_36">
      <!-- 0.02 -->
      <g transform="translate(794.964706 324.01672)scale(0.1 -0.1)">
       <use xlink:href="#DejaVuSans-48"/>
       <use x="63.623047" xlink:href="#DejaVuSans-46"/>
       <use x="95.410156" xlink:href="#DejaVuSans-48"/>
       <use x="159.033203" xlink:href="#DejaVuSans-50"/>
      </g>
     </g>
    </g>
    <g id="ytick_14">
     <g id="line2d_39">
      <g>
       <use style="stroke:#000000;stroke-width:0.8;" x="824.230331" xlink:href="#m032b9545d6" y="272.880628"/>
      </g>
     </g>
     <g id="text_37">
      <!-- 0.04 -->
      <g transform="translate(794.964706 276.679847)scale(0.1 -0.1)">
       <use xlink:href="#DejaVuSans-48"/>
       <use x="63.623047" xlink:href="#DejaVuSans-46"/>
       <use x="95.410156" xlink:href="#DejaVuSans-48"/>
       <use x="159.033203" xlink:href="#DejaVuSans-52"/>
      </g>
     </g>
    </g>
    <g id="ytick_15">
     <g id="line2d_40">
      <g>
       <use style="stroke:#000000;stroke-width:0.8;" x="824.230331" xlink:href="#m032b9545d6" y="225.543755"/>
      </g>
     </g>
     <g id="text_38">
      <!-- 0.06 -->
      <g transform="translate(794.964706 229.342973)scale(0.1 -0.1)">
       <use xlink:href="#DejaVuSans-48"/>
       <use x="63.623047" xlink:href="#DejaVuSans-46"/>
       <use x="95.410156" xlink:href="#DejaVuSans-48"/>
       <use x="159.033203" xlink:href="#DejaVuSans-54"/>
      </g>
     </g>
    </g>
    <g id="ytick_16">
     <g id="line2d_41">
      <g>
       <use style="stroke:#000000;stroke-width:0.8;" x="824.230331" xlink:href="#m032b9545d6" y="178.206881"/>
      </g>
     </g>
     <g id="text_39">
      <!-- 0.08 -->
      <g transform="translate(794.964706 182.0061)scale(0.1 -0.1)">
       <use xlink:href="#DejaVuSans-48"/>
       <use x="63.623047" xlink:href="#DejaVuSans-46"/>
       <use x="95.410156" xlink:href="#DejaVuSans-48"/>
       <use x="159.033203" xlink:href="#DejaVuSans-56"/>
      </g>
     </g>
    </g>
    <g id="ytick_17">
     <g id="line2d_42">
      <g>
       <use style="stroke:#000000;stroke-width:0.8;" x="824.230331" xlink:href="#m032b9545d6" y="130.870008"/>
      </g>
     </g>
     <g id="text_40">
      <!-- 0.10 -->
      <g transform="translate(794.964706 134.669226)scale(0.1 -0.1)">
       <use xlink:href="#DejaVuSans-48"/>
       <use x="63.623047" xlink:href="#DejaVuSans-46"/>
       <use x="95.410156" xlink:href="#DejaVuSans-49"/>
       <use x="159.033203" xlink:href="#DejaVuSans-48"/>
      </g>
     </g>
    </g>
    <g id="ytick_18">
     <g id="line2d_43">
      <g>
       <use style="stroke:#000000;stroke-width:0.8;" x="824.230331" xlink:href="#m032b9545d6" y="83.533134"/>
      </g>
     </g>
     <g id="text_41">
      <!-- 0.12 -->
      <g transform="translate(794.964706 87.332353)scale(0.1 -0.1)">
       <use xlink:href="#DejaVuSans-48"/>
       <use x="63.623047" xlink:href="#DejaVuSans-46"/>
       <use x="95.410156" xlink:href="#DejaVuSans-49"/>
       <use x="159.033203" xlink:href="#DejaVuSans-50"/>
      </g>
     </g>
    </g>
   </g>
   <g id="line2d_44">
    <path clip-path="url(#p6f0173f2aa)" d="M 845.155141 367.511884 
L 851.920157 367.333939 
L 856.430168 366.949485 
L 860.940178 366.203731 
L 865.450189 365.073419 
L 876.725216 361.624414 
L 883.490231 359.618006 
L 885.745237 359.027747 
L 888.000242 358.55864 
L 890.255247 358.274461 
L 892.510253 358.223455 
L 894.765258 358.420298 
L 897.020263 358.837518 
L 906.040284 361.188198 
L 908.29529 361.565412 
L 910.550295 361.77727 
L 912.8053 361.820858 
L 915.060306 361.699324 
L 917.315311 361.409558 
L 919.570316 360.933826 
L 921.825322 360.237771 
L 924.080327 359.275195 
L 926.335332 357.997933 
L 928.590337 356.367448 
L 930.845343 354.364163 
L 933.100348 351.991394 
L 935.355353 349.272526 
L 937.610359 346.242084 
L 939.865364 342.93268 
L 942.120369 339.360703 
L 944.375375 335.514735 
L 946.63038 331.352372 
L 948.885385 326.812137 
L 951.14039 321.84504 
L 953.395396 316.463171 
L 957.905406 305.104723 
L 960.160412 299.815784 
L 962.415417 295.425373 
L 964.670422 292.423699 
L 966.925428 291.184573 
L 969.180433 291.882042 
L 971.435438 294.45344 
L 973.690443 298.611254 
L 975.945449 303.887667 
L 980.455459 315.350906 
L 982.710465 320.18098 
L 984.96547 323.522108 
L 987.220475 324.820495 
L 989.475481 323.706484 
L 991.730486 320.062883 
L 993.985491 314.054173 
L 996.240496 306.096135 
L 998.495502 296.763723 
L 1003.005512 276.264593 
L 1009.770528 244.873378 
L 1012.025534 233.790827 
L 1014.280539 221.900609 
L 1016.535544 209.00422 
L 1018.79055 195.088245 
L 1023.30056 165.18338 
L 1027.810571 135.823648 
L 1030.065576 122.935932 
L 1032.320581 112.120913 
L 1034.575587 103.974705 
L 1036.830592 98.995706 
L 1039.085597 97.543634 
L 1041.340603 99.793716 
L 1043.595608 105.689238 
L 1045.850613 114.904158 
L 1048.105618 126.833988 
L 1050.360624 140.633225 
L 1054.870634 169.864311 
L 1057.12564 183.46484 
L 1059.380645 195.589607 
L 1061.63565 206.121695 
L 1063.890656 215.347991 
L 1068.400666 232.38842 
L 1070.655671 241.591044 
L 1072.910677 251.896174 
L 1075.165682 263.400158 
L 1079.675693 288.804865 
L 1081.930698 301.602919 
L 1084.185703 313.660358 
L 1086.440709 324.498388 
L 1088.695714 333.82003 
L 1090.950719 341.521115 
L 1093.205724 347.662786 
L 1095.46073 352.422245 
L 1097.715735 356.037859 
L 1099.97074 358.760609 
L 1102.225746 360.818595 
L 1104.480751 362.396789 
L 1106.735756 363.63078 
L 1108.990762 364.61114 
L 1111.245767 365.393998 
L 1113.500772 366.013485 
L 1115.755777 366.492649 
L 1120.265788 367.107787 
L 1124.775799 367.396799 
L 1131.540815 367.516985 
L 1131.540815 367.516985 
" style="fill:none;stroke:#c5b3f9;stroke-linecap:square;stroke-width:1.5;"/>
   </g>
   <g id="line2d_45">
    <path clip-path="url(#p6f0173f2aa)" d="M 839.150117 367.55176 
L 873.638065 367.441147 
L 885.633873 367.203745 
L 893.131253 366.876526 
L 899.129157 366.435471 
L 905.127061 365.74991 
L 909.625488 365.011153 
L 914.123916 364.016551 
L 917.122868 363.177676 
L 920.12182 362.171293 
L 923.120772 360.971899 
L 926.119724 359.551953 
L 929.118676 357.882124 
L 932.117628 355.93166 
L 935.11658 353.668874 
L 938.115532 351.061764 
L 941.114484 348.078759 
L 944.113436 344.689601 
L 947.112388 340.866344 
L 950.11134 336.584455 
L 953.110292 331.824003 
L 956.109244 326.570886 
L 959.108196 320.818086 
L 962.107148 314.566873 
L 965.1061 307.827941 
L 968.105052 300.622399 
L 971.104004 292.982574 
L 975.602432 280.808327 
L 980.10086 267.958561 
L 996.595096 219.785673 
L 999.594048 211.769363 
L 1002.593 204.270685 
L 1005.591952 197.403628 
L 1008.590904 191.276083 
L 1011.589856 185.987037 
L 1013.089332 183.684791 
L 1014.588808 181.623917 
L 1016.088284 179.813143 
L 1017.58776 178.260191 
L 1019.087236 176.971728 
L 1020.586712 175.953309 
L 1022.086188 175.209346 
L 1023.585664 174.743071 
L 1025.08514 174.556514 
L 1026.584616 174.650487 
L 1028.084092 175.024581 
L 1029.583568 175.677167 
L 1031.083044 176.605407 
L 1032.58252 177.805278 
L 1034.081996 179.271595 
L 1035.581472 180.998055 
L 1037.080948 182.977278 
L 1038.580424 185.200862 
L 1040.0799 187.659439 
L 1043.078852 193.239686 
L 1046.077804 199.626439 
L 1049.076756 206.717422 
L 1052.075707 214.402386 
L 1056.574135 226.790424 
L 1062.572039 244.298231 
L 1073.068371 275.180317 
L 1077.566799 287.682297 
L 1082.065227 299.390187 
L 1085.064179 306.669954 
L 1088.063131 313.487655 
L 1091.062083 319.820381 
L 1094.061035 325.65578 
L 1097.059987 330.991103 
L 1100.058939 335.832082 
L 1103.057891 340.191735 
L 1106.056843 344.089116 
L 1109.055795 347.548082 
L 1112.054747 350.596094 
L 1115.053699 353.263101 
L 1118.052651 355.580521 
L 1121.051603 357.580339 
L 1124.050555 359.294342 
L 1127.049507 360.753472 
L 1130.048459 361.987323 
L 1133.047411 363.023752 
L 1136.046363 363.888611 
L 1137.545839 364.264189 
L 1137.545839 364.264189 
" style="fill:none;stroke:#282828;stroke-linecap:square;stroke-width:1.5;"/>
   </g>
   <g id="patch_66">
    <path d="M 824.230331 367.554375 
L 824.230331 41.394375 
" style="fill:none;stroke:#000000;stroke-linecap:square;stroke-linejoin:miter;stroke-width:0.8;"/>
   </g>
   <g id="patch_67">
    <path d="M 1152.465625 367.554375 
L 1152.465625 41.394375 
" style="fill:none;stroke:#000000;stroke-linecap:square;stroke-linejoin:miter;stroke-width:0.8;"/>
   </g>
   <g id="patch_68">
    <path d="M 824.230331 367.554375 
L 1152.465625 367.554375 
" style="fill:none;stroke:#000000;stroke-linecap:square;stroke-linejoin:miter;stroke-width:0.8;"/>
   </g>
   <g id="patch_69">
    <path d="M 824.230331 41.394375 
L 1152.465625 41.394375 
" style="fill:none;stroke:#000000;stroke-linecap:square;stroke-linejoin:miter;stroke-width:0.8;"/>
   </g>
   <g id="text_42">
    <!-- V10 Distribution  -->
    <g transform="translate(925.153447 18.597656)scale(0.15 -0.15)">
     <use xlink:href="#DejaVuSans-86"/>
     <use x="68.408203" xlink:href="#DejaVuSans-49"/>
     <use x="132.03125" xlink:href="#DejaVuSans-48"/>
     <use x="195.654297" xlink:href="#DejaVuSans-32"/>
     <use x="227.441406" xlink:href="#DejaVuSans-68"/>
     <use x="304.443359" xlink:href="#DejaVuSans-105"/>
     <use x="332.226562" xlink:href="#DejaVuSans-115"/>
     <use x="384.326172" xlink:href="#DejaVuSans-116"/>
     <use x="423.535156" xlink:href="#DejaVuSans-114"/>
     <use x="464.648438" xlink:href="#DejaVuSans-105"/>
     <use x="492.431641" xlink:href="#DejaVuSans-98"/>
     <use x="555.908203" xlink:href="#DejaVuSans-117"/>
     <use x="619.287109" xlink:href="#DejaVuSans-116"/>
     <use x="658.496094" xlink:href="#DejaVuSans-105"/>
     <use x="686.279297" xlink:href="#DejaVuSans-111"/>
     <use x="747.460938" xlink:href="#DejaVuSans-110"/>
     <use x="810.839844" xlink:href="#DejaVuSans-32"/>
    </g>
    <!--  (Fraud Transactions) -->
    <g transform="translate(909.957744 35.394375)scale(0.15 -0.15)">
     <use xlink:href="#DejaVuSans-32"/>
     <use x="31.787109" xlink:href="#DejaVuSans-40"/>
     <use x="70.800781" xlink:href="#DejaVuSans-70"/>
     <use x="121.070312" xlink:href="#DejaVuSans-114"/>
     <use x="162.183594" xlink:href="#DejaVuSans-97"/>
     <use x="223.462891" xlink:href="#DejaVuSans-117"/>
     <use x="286.841797" xlink:href="#DejaVuSans-100"/>
     <use x="350.318359" xlink:href="#DejaVuSans-32"/>
     <use x="382.105469" xlink:href="#DejaVuSans-84"/>
     <use x="428.439453" xlink:href="#DejaVuSans-114"/>
     <use x="469.552734" xlink:href="#DejaVuSans-97"/>
     <use x="530.832031" xlink:href="#DejaVuSans-110"/>
     <use x="594.210938" xlink:href="#DejaVuSans-115"/>
     <use x="646.310547" xlink:href="#DejaVuSans-97"/>
     <use x="707.589844" xlink:href="#DejaVuSans-99"/>
     <use x="762.570312" xlink:href="#DejaVuSans-116"/>
     <use x="801.779297" xlink:href="#DejaVuSans-105"/>
     <use x="829.5625" xlink:href="#DejaVuSans-111"/>
     <use x="890.744141" xlink:href="#DejaVuSans-110"/>
     <use x="954.123047" xlink:href="#DejaVuSans-115"/>
     <use x="1006.222656" xlink:href="#DejaVuSans-41"/>
    </g>
   </g>
  </g>
 </g>
 <defs>
  <clipPath id="p0f9479c31d">
   <rect height="326.16" width="328.235294" x="36.465625" y="41.394375"/>
  </clipPath>
  <clipPath id="p9420994d33">
   <rect height="326.16" width="328.235294" x="430.347978" y="41.394375"/>
  </clipPath>
  <clipPath id="p6f0173f2aa">
   <rect height="326.16" width="328.235294" x="824.230331" y="41.394375"/>
  </clipPath>
 </defs>
</svg>
