<?xml version="1.0" encoding="utf-8" standalone="no"?>
<!DOCTYPE svg PUBLIC "-//W3C//DTD SVG 1.1//EN"
  "http://www.w3.org/Graphics/SVG/1.1/DTD/svg11.dtd">
<!-- Created with matplotlib (https://matplotlib.org/) -->
<svg height="373.875937pt" version="1.1" viewBox="0 0 1067.153125 373.875937" width="1067.153125pt" xmlns="http://www.w3.org/2000/svg" xmlns:xlink="http://www.w3.org/1999/xlink">
 <defs>
  <style type="text/css">
*{stroke-linecap:butt;stroke-linejoin:round;}
  </style>
 </defs>
 <g id="figure_1">
  <g id="patch_1">
   <path d="M 0 373.875937 
L 1067.153125 373.875937 
L 1067.153125 0 
L 0 0 
z
" style="fill:none;"/>
  </g>
  <g id="axes_1">
   <g id="patch_2">
    <path d="M 55.553125 349.997812 
L 512.09858 349.997812 
L 512.09858 23.837812 
L 55.553125 23.837812 
z
" style="fill:#ffffff;"/>
   </g>
   <g id="patch_3">
    <path clip-path="url(#pe55e49ccb3)" d="M 55.553125 349.997812 
L 64.684034 349.997812 
L 64.684034 39.369241 
L 55.553125 39.369241 
z
" style="fill:#ff0000;opacity:0.4;"/>
   </g>
   <g id="patch_4">
    <path clip-path="url(#pe55e49ccb3)" d="M 64.684034 349.997812 
L 73.814943 349.997812 
L 73.814943 343.233567 
L 64.684034 343.233567 
z
" style="fill:#ff0000;opacity:0.4;"/>
   </g>
   <g id="patch_5">
    <path clip-path="url(#pe55e49ccb3)" d="M 73.814943 349.997812 
L 82.945852 349.997812 
L 82.945852 348.26567 
L 73.814943 348.26567 
z
" style="fill:#ff0000;opacity:0.4;"/>
   </g>
   <g id="patch_6">
    <path clip-path="url(#pe55e49ccb3)" d="M 82.945852 349.997812 
L 92.076761 349.997812 
L 92.076761 349.292125 
L 82.945852 349.292125 
z
" style="fill:#ff0000;opacity:0.4;"/>
   </g>
   <g id="patch_7">
    <path clip-path="url(#pe55e49ccb3)" d="M 92.076761 349.997812 
L 101.20767 349.997812 
L 101.20767 349.742324 
L 92.076761 349.742324 
z
" style="fill:#ff0000;opacity:0.4;"/>
   </g>
   <g id="patch_8">
    <path clip-path="url(#pe55e49ccb3)" d="M 101.20767 349.997812 
L 110.33858 349.997812 
L 110.33858 349.835741 
L 101.20767 349.835741 
z
" style="fill:#ff0000;opacity:0.4;"/>
   </g>
   <g id="patch_9">
    <path clip-path="url(#pe55e49ccb3)" d="M 110.33858 349.997812 
L 119.469489 349.997812 
L 119.469489 349.894267 
L 110.33858 349.894267 
z
" style="fill:#ff0000;opacity:0.4;"/>
   </g>
   <g id="patch_10">
    <path clip-path="url(#pe55e49ccb3)" d="M 119.469489 349.997812 
L 128.600398 349.997812 
L 128.600398 349.920153 
L 119.469489 349.920153 
z
" style="fill:#ff0000;opacity:0.4;"/>
   </g>
   <g id="patch_11">
    <path clip-path="url(#pe55e49ccb3)" d="M 128.600398 349.997812 
L 137.731307 349.997812 
L 137.731307 349.960671 
L 128.600398 349.960671 
z
" style="fill:#ff0000;opacity:0.4;"/>
   </g>
   <g id="patch_12">
    <path clip-path="url(#pe55e49ccb3)" d="M 137.731307 349.997812 
L 146.862216 349.997812 
L 146.862216 349.973052 
L 137.731307 349.973052 
z
" style="fill:#ff0000;opacity:0.4;"/>
   </g>
   <g id="patch_13">
    <path clip-path="url(#pe55e49ccb3)" d="M 146.862216 349.997812 
L 155.993125 349.997812 
L 155.993125 349.986558 
L 146.862216 349.986558 
z
" style="fill:#ff0000;opacity:0.4;"/>
   </g>
   <g id="patch_14">
    <path clip-path="url(#pe55e49ccb3)" d="M 155.993125 349.997812 
L 165.124034 349.997812 
L 165.124034 349.985432 
L 155.993125 349.985432 
z
" style="fill:#ff0000;opacity:0.4;"/>
   </g>
   <g id="patch_15">
    <path clip-path="url(#pe55e49ccb3)" d="M 165.124034 349.997812 
L 174.254943 349.997812 
L 174.254943 349.992185 
L 165.124034 349.992185 
z
" style="fill:#ff0000;opacity:0.4;"/>
   </g>
   <g id="patch_16">
    <path clip-path="url(#pe55e49ccb3)" d="M 174.254943 349.997812 
L 183.385852 349.997812 
L 183.385852 349.992185 
L 174.254943 349.992185 
z
" style="fill:#ff0000;opacity:0.4;"/>
   </g>
   <g id="patch_17">
    <path clip-path="url(#pe55e49ccb3)" d="M 183.385852 349.997812 
L 192.516761 349.997812 
L 192.516761 349.992185 
L 183.385852 349.992185 
z
" style="fill:#ff0000;opacity:0.4;"/>
   </g>
   <g id="patch_18">
    <path clip-path="url(#pe55e49ccb3)" d="M 192.516761 349.997812 
L 201.64767 349.997812 
L 201.64767 349.992185 
L 192.516761 349.992185 
z
" style="fill:#ff0000;opacity:0.4;"/>
   </g>
   <g id="patch_19">
    <path clip-path="url(#pe55e49ccb3)" d="M 201.64767 349.997812 
L 210.77858 349.997812 
L 210.77858 349.996687 
L 201.64767 349.996687 
z
" style="fill:#ff0000;opacity:0.4;"/>
   </g>
   <g id="patch_20">
    <path clip-path="url(#pe55e49ccb3)" d="M 210.77858 349.997812 
L 219.909489 349.997812 
L 219.909489 349.995562 
L 210.77858 349.995562 
z
" style="fill:#ff0000;opacity:0.4;"/>
   </g>
   <g id="patch_21">
    <path clip-path="url(#pe55e49ccb3)" d="M 219.909489 349.997812 
L 229.040398 349.997812 
L 229.040398 349.997812 
L 219.909489 349.997812 
z
" style="fill:#ff0000;opacity:0.4;"/>
   </g>
   <g id="patch_22">
    <path clip-path="url(#pe55e49ccb3)" d="M 229.040398 349.997812 
L 238.171307 349.997812 
L 238.171307 349.995562 
L 229.040398 349.995562 
z
" style="fill:#ff0000;opacity:0.4;"/>
   </g>
   <g id="patch_23">
    <path clip-path="url(#pe55e49ccb3)" d="M 238.171307 349.997812 
L 247.302216 349.997812 
L 247.302216 349.997812 
L 238.171307 349.997812 
z
" style="fill:#ff0000;opacity:0.4;"/>
   </g>
   <g id="patch_24">
    <path clip-path="url(#pe55e49ccb3)" d="M 247.302216 349.997812 
L 256.433125 349.997812 
L 256.433125 349.997812 
L 247.302216 349.997812 
z
" style="fill:#ff0000;opacity:0.4;"/>
   </g>
   <g id="patch_25">
    <path clip-path="url(#pe55e49ccb3)" d="M 256.433125 349.997812 
L 265.564034 349.997812 
L 265.564034 349.996687 
L 256.433125 349.996687 
z
" style="fill:#ff0000;opacity:0.4;"/>
   </g>
   <g id="patch_26">
    <path clip-path="url(#pe55e49ccb3)" d="M 265.564034 349.997812 
L 274.694943 349.997812 
L 274.694943 349.996687 
L 265.564034 349.996687 
z
" style="fill:#ff0000;opacity:0.4;"/>
   </g>
   <g id="patch_27">
    <path clip-path="url(#pe55e49ccb3)" d="M 274.694943 349.997812 
L 283.825852 349.997812 
L 283.825852 349.997812 
L 274.694943 349.997812 
z
" style="fill:#ff0000;opacity:0.4;"/>
   </g>
   <g id="patch_28">
    <path clip-path="url(#pe55e49ccb3)" d="M 283.825852 349.997812 
L 292.956761 349.997812 
L 292.956761 349.996687 
L 283.825852 349.996687 
z
" style="fill:#ff0000;opacity:0.4;"/>
   </g>
   <g id="patch_29">
    <path clip-path="url(#pe55e49ccb3)" d="M 292.956761 349.997812 
L 302.08767 349.997812 
L 302.08767 349.997812 
L 292.956761 349.997812 
z
" style="fill:#ff0000;opacity:0.4;"/>
   </g>
   <g id="patch_30">
    <path clip-path="url(#pe55e49ccb3)" d="M 302.08767 349.997812 
L 311.21858 349.997812 
L 311.21858 349.997812 
L 302.08767 349.997812 
z
" style="fill:#ff0000;opacity:0.4;"/>
   </g>
   <g id="patch_31">
    <path clip-path="url(#pe55e49ccb3)" d="M 311.21858 349.997812 
L 320.349489 349.997812 
L 320.349489 349.997812 
L 311.21858 349.997812 
z
" style="fill:#ff0000;opacity:0.4;"/>
   </g>
   <g id="patch_32">
    <path clip-path="url(#pe55e49ccb3)" d="M 320.349489 349.997812 
L 329.480398 349.997812 
L 329.480398 349.997812 
L 320.349489 349.997812 
z
" style="fill:#ff0000;opacity:0.4;"/>
   </g>
   <g id="patch_33">
    <path clip-path="url(#pe55e49ccb3)" d="M 329.480398 349.997812 
L 338.611307 349.997812 
L 338.611307 349.997812 
L 329.480398 349.997812 
z
" style="fill:#ff0000;opacity:0.4;"/>
   </g>
   <g id="patch_34">
    <path clip-path="url(#pe55e49ccb3)" d="M 338.611307 349.997812 
L 347.742216 349.997812 
L 347.742216 349.997812 
L 338.611307 349.997812 
z
" style="fill:#ff0000;opacity:0.4;"/>
   </g>
   <g id="patch_35">
    <path clip-path="url(#pe55e49ccb3)" d="M 347.742216 349.997812 
L 356.873125 349.997812 
L 356.873125 349.997812 
L 347.742216 349.997812 
z
" style="fill:#ff0000;opacity:0.4;"/>
   </g>
   <g id="patch_36">
    <path clip-path="url(#pe55e49ccb3)" d="M 356.873125 349.997812 
L 366.004034 349.997812 
L 366.004034 349.997812 
L 356.873125 349.997812 
z
" style="fill:#ff0000;opacity:0.4;"/>
   </g>
   <g id="patch_37">
    <path clip-path="url(#pe55e49ccb3)" d="M 366.004034 349.997812 
L 375.134943 349.997812 
L 375.134943 349.997812 
L 366.004034 349.997812 
z
" style="fill:#ff0000;opacity:0.4;"/>
   </g>
   <g id="patch_38">
    <path clip-path="url(#pe55e49ccb3)" d="M 375.134943 349.997812 
L 384.265852 349.997812 
L 384.265852 349.997812 
L 375.134943 349.997812 
z
" style="fill:#ff0000;opacity:0.4;"/>
   </g>
   <g id="patch_39">
    <path clip-path="url(#pe55e49ccb3)" d="M 384.265852 349.997812 
L 393.396761 349.997812 
L 393.396761 349.996687 
L 384.265852 349.996687 
z
" style="fill:#ff0000;opacity:0.4;"/>
   </g>
   <g id="patch_40">
    <path clip-path="url(#pe55e49ccb3)" d="M 393.396761 349.997812 
L 402.52767 349.997812 
L 402.52767 349.997812 
L 393.396761 349.997812 
z
" style="fill:#ff0000;opacity:0.4;"/>
   </g>
   <g id="patch_41">
    <path clip-path="url(#pe55e49ccb3)" d="M 402.52767 349.997812 
L 411.65858 349.997812 
L 411.65858 349.996687 
L 402.52767 349.996687 
z
" style="fill:#ff0000;opacity:0.4;"/>
   </g>
   <g id="patch_42">
    <path clip-path="url(#pe55e49ccb3)" d="M 411.65858 349.997812 
L 420.789489 349.997812 
L 420.789489 349.997812 
L 411.65858 349.997812 
z
" style="fill:#ff0000;opacity:0.4;"/>
   </g>
   <g id="patch_43">
    <path clip-path="url(#pe55e49ccb3)" d="M 420.789489 349.997812 
L 429.920398 349.997812 
L 429.920398 349.997812 
L 420.789489 349.997812 
z
" style="fill:#ff0000;opacity:0.4;"/>
   </g>
   <g id="patch_44">
    <path clip-path="url(#pe55e49ccb3)" d="M 429.920398 349.997812 
L 439.051307 349.997812 
L 439.051307 349.997812 
L 429.920398 349.997812 
z
" style="fill:#ff0000;opacity:0.4;"/>
   </g>
   <g id="patch_45">
    <path clip-path="url(#pe55e49ccb3)" d="M 439.051307 349.997812 
L 448.182216 349.997812 
L 448.182216 349.997812 
L 439.051307 349.997812 
z
" style="fill:#ff0000;opacity:0.4;"/>
   </g>
   <g id="patch_46">
    <path clip-path="url(#pe55e49ccb3)" d="M 448.182216 349.997812 
L 457.313125 349.997812 
L 457.313125 349.997812 
L 448.182216 349.997812 
z
" style="fill:#ff0000;opacity:0.4;"/>
   </g>
   <g id="patch_47">
    <path clip-path="url(#pe55e49ccb3)" d="M 457.313125 349.997812 
L 466.444034 349.997812 
L 466.444034 349.997812 
L 457.313125 349.997812 
z
" style="fill:#ff0000;opacity:0.4;"/>
   </g>
   <g id="patch_48">
    <path clip-path="url(#pe55e49ccb3)" d="M 466.444034 349.997812 
L 475.574943 349.997812 
L 475.574943 349.997812 
L 466.444034 349.997812 
z
" style="fill:#ff0000;opacity:0.4;"/>
   </g>
   <g id="patch_49">
    <path clip-path="url(#pe55e49ccb3)" d="M 475.574943 349.997812 
L 484.705852 349.997812 
L 484.705852 349.997812 
L 475.574943 349.997812 
z
" style="fill:#ff0000;opacity:0.4;"/>
   </g>
   <g id="patch_50">
    <path clip-path="url(#pe55e49ccb3)" d="M 484.705852 349.997812 
L 493.836761 349.997812 
L 493.836761 349.997812 
L 484.705852 349.997812 
z
" style="fill:#ff0000;opacity:0.4;"/>
   </g>
   <g id="patch_51">
    <path clip-path="url(#pe55e49ccb3)" d="M 493.836761 349.997812 
L 502.96767 349.997812 
L 502.96767 349.997812 
L 493.836761 349.997812 
z
" style="fill:#ff0000;opacity:0.4;"/>
   </g>
   <g id="patch_52">
    <path clip-path="url(#pe55e49ccb3)" d="M 502.96767 349.997812 
L 512.09858 349.997812 
L 512.09858 349.996687 
L 502.96767 349.996687 
z
" style="fill:#ff0000;opacity:0.4;"/>
   </g>
   <g id="matplotlib.axis_1">
    <g id="xtick_1">
     <g id="line2d_1">
      <defs>
       <path d="M 0 0 
L 0 3.5 
" id="md060ecb054" style="stroke:#000000;stroke-width:0.8;"/>
      </defs>
      <g>
       <use style="stroke:#000000;stroke-width:0.8;" x="55.553125" xlink:href="#md060ecb054" y="349.997812"/>
      </g>
     </g>
     <g id="text_1">
      <!-- 0 -->
      <defs>
       <path d="M 31.78125 66.40625 
Q 24.171875 66.40625 20.328125 58.90625 
Q 16.5 51.421875 16.5 36.375 
Q 16.5 21.390625 20.328125 13.890625 
Q 24.171875 6.390625 31.78125 6.390625 
Q 39.453125 6.390625 43.28125 13.890625 
Q 47.125 21.390625 47.125 36.375 
Q 47.125 51.421875 43.28125 58.90625 
Q 39.453125 66.40625 31.78125 66.40625 
z
M 31.78125 74.21875 
Q 44.046875 74.21875 50.515625 64.515625 
Q 56.984375 54.828125 56.984375 36.375 
Q 56.984375 17.96875 50.515625 8.265625 
Q 44.046875 -1.421875 31.78125 -1.421875 
Q 19.53125 -1.421875 13.0625 8.265625 
Q 6.59375 17.96875 6.59375 36.375 
Q 6.59375 54.828125 13.0625 64.515625 
Q 19.53125 74.21875 31.78125 74.21875 
z
" id="DejaVuSans-48"/>
      </defs>
      <g transform="translate(52.371875 364.59625)scale(0.1 -0.1)">
       <use xlink:href="#DejaVuSans-48"/>
      </g>
     </g>
    </g>
    <g id="xtick_2">
     <g id="line2d_2">
      <g>
       <use style="stroke:#000000;stroke-width:0.8;" x="144.40576" xlink:href="#md060ecb054" y="349.997812"/>
      </g>
     </g>
     <g id="text_2">
      <!-- 5000 -->
      <defs>
       <path d="M 10.796875 72.90625 
L 49.515625 72.90625 
L 49.515625 64.59375 
L 19.828125 64.59375 
L 19.828125 46.734375 
Q 21.96875 47.46875 24.109375 47.828125 
Q 26.265625 48.1875 28.421875 48.1875 
Q 40.625 48.1875 47.75 41.5 
Q 54.890625 34.8125 54.890625 23.390625 
Q 54.890625 11.625 47.5625 5.09375 
Q 40.234375 -1.421875 26.90625 -1.421875 
Q 22.3125 -1.421875 17.546875 -0.640625 
Q 12.796875 0.140625 7.71875 1.703125 
L 7.71875 11.625 
Q 12.109375 9.234375 16.796875 8.0625 
Q 21.484375 6.890625 26.703125 6.890625 
Q 35.15625 6.890625 40.078125 11.328125 
Q 45.015625 15.765625 45.015625 23.390625 
Q 45.015625 31 40.078125 35.4375 
Q 35.15625 39.890625 26.703125 39.890625 
Q 22.75 39.890625 18.8125 39.015625 
Q 14.890625 38.140625 10.796875 36.28125 
z
" id="DejaVuSans-53"/>
      </defs>
      <g transform="translate(131.68076 364.59625)scale(0.1 -0.1)">
       <use xlink:href="#DejaVuSans-53"/>
       <use x="63.623047" xlink:href="#DejaVuSans-48"/>
       <use x="127.246094" xlink:href="#DejaVuSans-48"/>
       <use x="190.869141" xlink:href="#DejaVuSans-48"/>
      </g>
     </g>
    </g>
    <g id="xtick_3">
     <g id="line2d_3">
      <g>
       <use style="stroke:#000000;stroke-width:0.8;" x="233.258396" xlink:href="#md060ecb054" y="349.997812"/>
      </g>
     </g>
     <g id="text_3">
      <!-- 10000 -->
      <defs>
       <path d="M 12.40625 8.296875 
L 28.515625 8.296875 
L 28.515625 63.921875 
L 10.984375 60.40625 
L 10.984375 69.390625 
L 28.421875 72.90625 
L 38.28125 72.90625 
L 38.28125 8.296875 
L 54.390625 8.296875 
L 54.390625 0 
L 12.40625 0 
z
" id="DejaVuSans-49"/>
      </defs>
      <g transform="translate(217.352146 364.59625)scale(0.1 -0.1)">
       <use xlink:href="#DejaVuSans-49"/>
       <use x="63.623047" xlink:href="#DejaVuSans-48"/>
       <use x="127.246094" xlink:href="#DejaVuSans-48"/>
       <use x="190.869141" xlink:href="#DejaVuSans-48"/>
       <use x="254.492188" xlink:href="#DejaVuSans-48"/>
      </g>
     </g>
    </g>
    <g id="xtick_4">
     <g id="line2d_4">
      <g>
       <use style="stroke:#000000;stroke-width:0.8;" x="322.111031" xlink:href="#md060ecb054" y="349.997812"/>
      </g>
     </g>
     <g id="text_4">
      <!-- 15000 -->
      <g transform="translate(306.204781 364.59625)scale(0.1 -0.1)">
       <use xlink:href="#DejaVuSans-49"/>
       <use x="63.623047" xlink:href="#DejaVuSans-53"/>
       <use x="127.246094" xlink:href="#DejaVuSans-48"/>
       <use x="190.869141" xlink:href="#DejaVuSans-48"/>
       <use x="254.492188" xlink:href="#DejaVuSans-48"/>
      </g>
     </g>
    </g>
    <g id="xtick_5">
     <g id="line2d_5">
      <g>
       <use style="stroke:#000000;stroke-width:0.8;" x="410.963667" xlink:href="#md060ecb054" y="349.997812"/>
      </g>
     </g>
     <g id="text_5">
      <!-- 20000 -->
      <defs>
       <path d="M 19.1875 8.296875 
L 53.609375 8.296875 
L 53.609375 0 
L 7.328125 0 
L 7.328125 8.296875 
Q 12.9375 14.109375 22.625 23.890625 
Q 32.328125 33.6875 34.8125 36.53125 
Q 39.546875 41.84375 41.421875 45.53125 
Q 43.3125 49.21875 43.3125 52.78125 
Q 43.3125 58.59375 39.234375 62.25 
Q 35.15625 65.921875 28.609375 65.921875 
Q 23.96875 65.921875 18.8125 64.3125 
Q 13.671875 62.703125 7.8125 59.421875 
L 7.8125 69.390625 
Q 13.765625 71.78125 18.9375 73 
Q 24.125 74.21875 28.421875 74.21875 
Q 39.75 74.21875 46.484375 68.546875 
Q 53.21875 62.890625 53.21875 53.421875 
Q 53.21875 48.921875 51.53125 44.890625 
Q 49.859375 40.875 45.40625 35.40625 
Q 44.1875 33.984375 37.640625 27.21875 
Q 31.109375 20.453125 19.1875 8.296875 
z
" id="DejaVuSans-50"/>
      </defs>
      <g transform="translate(395.057417 364.59625)scale(0.1 -0.1)">
       <use xlink:href="#DejaVuSans-50"/>
       <use x="63.623047" xlink:href="#DejaVuSans-48"/>
       <use x="127.246094" xlink:href="#DejaVuSans-48"/>
       <use x="190.869141" xlink:href="#DejaVuSans-48"/>
       <use x="254.492188" xlink:href="#DejaVuSans-48"/>
      </g>
     </g>
    </g>
    <g id="xtick_6">
     <g id="line2d_6">
      <g>
       <use style="stroke:#000000;stroke-width:0.8;" x="499.816302" xlink:href="#md060ecb054" y="349.997812"/>
      </g>
     </g>
     <g id="text_6">
      <!-- 25000 -->
      <g transform="translate(483.910052 364.59625)scale(0.1 -0.1)">
       <use xlink:href="#DejaVuSans-50"/>
       <use x="63.623047" xlink:href="#DejaVuSans-53"/>
       <use x="127.246094" xlink:href="#DejaVuSans-48"/>
       <use x="190.869141" xlink:href="#DejaVuSans-48"/>
       <use x="254.492188" xlink:href="#DejaVuSans-48"/>
      </g>
     </g>
    </g>
   </g>
   <g id="matplotlib.axis_2">
    <g id="ytick_1">
     <g id="line2d_7">
      <defs>
       <path d="M 0 0 
L -3.5 0 
" id="mbaad12c150" style="stroke:#000000;stroke-width:0.8;"/>
      </defs>
      <g>
       <use style="stroke:#000000;stroke-width:0.8;" x="55.553125" xlink:href="#mbaad12c150" y="349.997812"/>
      </g>
     </g>
     <g id="text_7">
      <!-- 0.00000 -->
      <defs>
       <path d="M 10.6875 12.40625 
L 21 12.40625 
L 21 0 
L 10.6875 0 
z
" id="DejaVuSans-46"/>
      </defs>
      <g transform="translate(7.2 353.797031)scale(0.1 -0.1)">
       <use xlink:href="#DejaVuSans-48"/>
       <use x="63.623047" xlink:href="#DejaVuSans-46"/>
       <use x="95.410156" xlink:href="#DejaVuSans-48"/>
       <use x="159.033203" xlink:href="#DejaVuSans-48"/>
       <use x="222.65625" xlink:href="#DejaVuSans-48"/>
       <use x="286.279297" xlink:href="#DejaVuSans-48"/>
       <use x="349.902344" xlink:href="#DejaVuSans-48"/>
      </g>
     </g>
    </g>
    <g id="ytick_2">
     <g id="line2d_8">
      <g>
       <use style="stroke:#000000;stroke-width:0.8;" x="55.553125" xlink:href="#mbaad12c150" y="308.821326"/>
      </g>
     </g>
     <g id="text_8">
      <!-- 0.00025 -->
      <g transform="translate(7.2 312.620545)scale(0.1 -0.1)">
       <use xlink:href="#DejaVuSans-48"/>
       <use x="63.623047" xlink:href="#DejaVuSans-46"/>
       <use x="95.410156" xlink:href="#DejaVuSans-48"/>
       <use x="159.033203" xlink:href="#DejaVuSans-48"/>
       <use x="222.65625" xlink:href="#DejaVuSans-48"/>
       <use x="286.279297" xlink:href="#DejaVuSans-50"/>
       <use x="349.902344" xlink:href="#DejaVuSans-53"/>
      </g>
     </g>
    </g>
    <g id="ytick_3">
     <g id="line2d_9">
      <g>
       <use style="stroke:#000000;stroke-width:0.8;" x="55.553125" xlink:href="#mbaad12c150" y="267.64484"/>
      </g>
     </g>
     <g id="text_9">
      <!-- 0.00050 -->
      <g transform="translate(7.2 271.444059)scale(0.1 -0.1)">
       <use xlink:href="#DejaVuSans-48"/>
       <use x="63.623047" xlink:href="#DejaVuSans-46"/>
       <use x="95.410156" xlink:href="#DejaVuSans-48"/>
       <use x="159.033203" xlink:href="#DejaVuSans-48"/>
       <use x="222.65625" xlink:href="#DejaVuSans-48"/>
       <use x="286.279297" xlink:href="#DejaVuSans-53"/>
       <use x="349.902344" xlink:href="#DejaVuSans-48"/>
      </g>
     </g>
    </g>
    <g id="ytick_4">
     <g id="line2d_10">
      <g>
       <use style="stroke:#000000;stroke-width:0.8;" x="55.553125" xlink:href="#mbaad12c150" y="226.468354"/>
      </g>
     </g>
     <g id="text_10">
      <!-- 0.00075 -->
      <defs>
       <path d="M 8.203125 72.90625 
L 55.078125 72.90625 
L 55.078125 68.703125 
L 28.609375 0 
L 18.3125 0 
L 43.21875 64.59375 
L 8.203125 64.59375 
z
" id="DejaVuSans-55"/>
      </defs>
      <g transform="translate(7.2 230.267573)scale(0.1 -0.1)">
       <use xlink:href="#DejaVuSans-48"/>
       <use x="63.623047" xlink:href="#DejaVuSans-46"/>
       <use x="95.410156" xlink:href="#DejaVuSans-48"/>
       <use x="159.033203" xlink:href="#DejaVuSans-48"/>
       <use x="222.65625" xlink:href="#DejaVuSans-48"/>
       <use x="286.279297" xlink:href="#DejaVuSans-55"/>
       <use x="349.902344" xlink:href="#DejaVuSans-53"/>
      </g>
     </g>
    </g>
    <g id="ytick_5">
     <g id="line2d_11">
      <g>
       <use style="stroke:#000000;stroke-width:0.8;" x="55.553125" xlink:href="#mbaad12c150" y="185.291868"/>
      </g>
     </g>
     <g id="text_11">
      <!-- 0.00100 -->
      <g transform="translate(7.2 189.091087)scale(0.1 -0.1)">
       <use xlink:href="#DejaVuSans-48"/>
       <use x="63.623047" xlink:href="#DejaVuSans-46"/>
       <use x="95.410156" xlink:href="#DejaVuSans-48"/>
       <use x="159.033203" xlink:href="#DejaVuSans-48"/>
       <use x="222.65625" xlink:href="#DejaVuSans-49"/>
       <use x="286.279297" xlink:href="#DejaVuSans-48"/>
       <use x="349.902344" xlink:href="#DejaVuSans-48"/>
      </g>
     </g>
    </g>
    <g id="ytick_6">
     <g id="line2d_12">
      <g>
       <use style="stroke:#000000;stroke-width:0.8;" x="55.553125" xlink:href="#mbaad12c150" y="144.115382"/>
      </g>
     </g>
     <g id="text_12">
      <!-- 0.00125 -->
      <g transform="translate(7.2 147.9146)scale(0.1 -0.1)">
       <use xlink:href="#DejaVuSans-48"/>
       <use x="63.623047" xlink:href="#DejaVuSans-46"/>
       <use x="95.410156" xlink:href="#DejaVuSans-48"/>
       <use x="159.033203" xlink:href="#DejaVuSans-48"/>
       <use x="222.65625" xlink:href="#DejaVuSans-49"/>
       <use x="286.279297" xlink:href="#DejaVuSans-50"/>
       <use x="349.902344" xlink:href="#DejaVuSans-53"/>
      </g>
     </g>
    </g>
    <g id="ytick_7">
     <g id="line2d_13">
      <g>
       <use style="stroke:#000000;stroke-width:0.8;" x="55.553125" xlink:href="#mbaad12c150" y="102.938895"/>
      </g>
     </g>
     <g id="text_13">
      <!-- 0.00150 -->
      <g transform="translate(7.2 106.738114)scale(0.1 -0.1)">
       <use xlink:href="#DejaVuSans-48"/>
       <use x="63.623047" xlink:href="#DejaVuSans-46"/>
       <use x="95.410156" xlink:href="#DejaVuSans-48"/>
       <use x="159.033203" xlink:href="#DejaVuSans-48"/>
       <use x="222.65625" xlink:href="#DejaVuSans-49"/>
       <use x="286.279297" xlink:href="#DejaVuSans-53"/>
       <use x="349.902344" xlink:href="#DejaVuSans-48"/>
      </g>
     </g>
    </g>
    <g id="ytick_8">
     <g id="line2d_14">
      <g>
       <use style="stroke:#000000;stroke-width:0.8;" x="55.553125" xlink:href="#mbaad12c150" y="61.762409"/>
      </g>
     </g>
     <g id="text_14">
      <!-- 0.00175 -->
      <g transform="translate(7.2 65.561628)scale(0.1 -0.1)">
       <use xlink:href="#DejaVuSans-48"/>
       <use x="63.623047" xlink:href="#DejaVuSans-46"/>
       <use x="95.410156" xlink:href="#DejaVuSans-48"/>
       <use x="159.033203" xlink:href="#DejaVuSans-48"/>
       <use x="222.65625" xlink:href="#DejaVuSans-49"/>
       <use x="286.279297" xlink:href="#DejaVuSans-55"/>
       <use x="349.902344" xlink:href="#DejaVuSans-53"/>
      </g>
     </g>
    </g>
   </g>
   <g id="line2d_15">
    <path clip-path="url(#pe55e49ccb3)" d="M 55.310187 348.888251 
L 58.908859 349.997812 
L 62.50753 338.732622 
L 66.106202 338.014514 
L 69.704874 344.949015 
L 76.902218 348.082133 
L 80.50089 348.680667 
L 84.099562 349.100448 
L 94.895578 349.772848 
L 102.092921 349.779359 
L 112.888937 349.894559 
L 195.658391 349.995959 
L 300.019876 349.992575 
L 375.591986 349.997812 
L 429.572064 349.981605 
L 454.762768 349.997812 
L 465.558783 349.957219 
L 476.354799 349.997812 
L 479.953471 349.928068 
L 483.552143 349.997812 
L 487.150815 349.900339 
L 490.749487 349.997812 
L 494.348158 349.852865 
L 497.94683 349.997812 
L 501.545502 349.762164 
L 505.144174 349.997812 
L 508.742846 349.555639 
L 512.341518 349.997812 
L 512.341518 349.997812 
" style="fill:none;stroke:#ff0000;stroke-linecap:square;stroke-width:1.5;"/>
   </g>
   <g id="patch_53">
    <path d="M 55.553125 349.997812 
L 55.553125 23.837812 
" style="fill:none;stroke:#000000;stroke-linecap:square;stroke-linejoin:miter;stroke-width:0.8;"/>
   </g>
   <g id="patch_54">
    <path d="M 512.09858 349.997812 
L 512.09858 23.837812 
" style="fill:none;stroke:#000000;stroke-linecap:square;stroke-linejoin:miter;stroke-width:0.8;"/>
   </g>
   <g id="patch_55">
    <path d="M 55.553125 349.997812 
L 512.09858 349.997812 
" style="fill:none;stroke:#000000;stroke-linecap:square;stroke-linejoin:miter;stroke-width:0.8;"/>
   </g>
   <g id="patch_56">
    <path d="M 55.553125 23.837812 
L 512.09858 23.837812 
" style="fill:none;stroke:#000000;stroke-linecap:square;stroke-linejoin:miter;stroke-width:0.8;"/>
   </g>
   <g id="text_15">
    <!-- Distribution of Transaction Amount -->
    <defs>
     <path d="M 19.671875 64.796875 
L 19.671875 8.109375 
L 31.59375 8.109375 
Q 46.6875 8.109375 53.6875 14.9375 
Q 60.6875 21.78125 60.6875 36.53125 
Q 60.6875 51.171875 53.6875 57.984375 
Q 46.6875 64.796875 31.59375 64.796875 
z
M 9.8125 72.90625 
L 30.078125 72.90625 
Q 51.265625 72.90625 61.171875 64.09375 
Q 71.09375 55.28125 71.09375 36.53125 
Q 71.09375 17.671875 61.125 8.828125 
Q 51.171875 0 30.078125 0 
L 9.8125 0 
z
" id="DejaVuSans-68"/>
     <path d="M 9.421875 54.6875 
L 18.40625 54.6875 
L 18.40625 0 
L 9.421875 0 
z
M 9.421875 75.984375 
L 18.40625 75.984375 
L 18.40625 64.59375 
L 9.421875 64.59375 
z
" id="DejaVuSans-105"/>
     <path d="M 44.28125 53.078125 
L 44.28125 44.578125 
Q 40.484375 46.53125 36.375 47.5 
Q 32.28125 48.484375 27.875 48.484375 
Q 21.1875 48.484375 17.84375 46.4375 
Q 14.5 44.390625 14.5 40.28125 
Q 14.5 37.15625 16.890625 35.375 
Q 19.28125 33.59375 26.515625 31.984375 
L 29.59375 31.296875 
Q 39.15625 29.25 43.1875 25.515625 
Q 47.21875 21.78125 47.21875 15.09375 
Q 47.21875 7.46875 41.1875 3.015625 
Q 35.15625 -1.421875 24.609375 -1.421875 
Q 20.21875 -1.421875 15.453125 -0.5625 
Q 10.6875 0.296875 5.421875 2 
L 5.421875 11.28125 
Q 10.40625 8.6875 15.234375 7.390625 
Q 20.0625 6.109375 24.8125 6.109375 
Q 31.15625 6.109375 34.5625 8.28125 
Q 37.984375 10.453125 37.984375 14.40625 
Q 37.984375 18.0625 35.515625 20.015625 
Q 33.0625 21.96875 24.703125 23.78125 
L 21.578125 24.515625 
Q 13.234375 26.265625 9.515625 29.90625 
Q 5.8125 33.546875 5.8125 39.890625 
Q 5.8125 47.609375 11.28125 51.796875 
Q 16.75 56 26.8125 56 
Q 31.78125 56 36.171875 55.265625 
Q 40.578125 54.546875 44.28125 53.078125 
z
" id="DejaVuSans-115"/>
     <path d="M 18.3125 70.21875 
L 18.3125 54.6875 
L 36.8125 54.6875 
L 36.8125 47.703125 
L 18.3125 47.703125 
L 18.3125 18.015625 
Q 18.3125 11.328125 20.140625 9.421875 
Q 21.96875 7.515625 27.59375 7.515625 
L 36.8125 7.515625 
L 36.8125 0 
L 27.59375 0 
Q 17.1875 0 13.234375 3.875 
Q 9.28125 7.765625 9.28125 18.015625 
L 9.28125 47.703125 
L 2.6875 47.703125 
L 2.6875 54.6875 
L 9.28125 54.6875 
L 9.28125 70.21875 
z
" id="DejaVuSans-116"/>
     <path d="M 41.109375 46.296875 
Q 39.59375 47.171875 37.8125 47.578125 
Q 36.03125 48 33.890625 48 
Q 26.265625 48 22.1875 43.046875 
Q 18.109375 38.09375 18.109375 28.8125 
L 18.109375 0 
L 9.078125 0 
L 9.078125 54.6875 
L 18.109375 54.6875 
L 18.109375 46.1875 
Q 20.953125 51.171875 25.484375 53.578125 
Q 30.03125 56 36.53125 56 
Q 37.453125 56 38.578125 55.875 
Q 39.703125 55.765625 41.0625 55.515625 
z
" id="DejaVuSans-114"/>
     <path d="M 48.6875 27.296875 
Q 48.6875 37.203125 44.609375 42.84375 
Q 40.53125 48.484375 33.40625 48.484375 
Q 26.265625 48.484375 22.1875 42.84375 
Q 18.109375 37.203125 18.109375 27.296875 
Q 18.109375 17.390625 22.1875 11.75 
Q 26.265625 6.109375 33.40625 6.109375 
Q 40.53125 6.109375 44.609375 11.75 
Q 48.6875 17.390625 48.6875 27.296875 
z
M 18.109375 46.390625 
Q 20.953125 51.265625 25.265625 53.625 
Q 29.59375 56 35.59375 56 
Q 45.5625 56 51.78125 48.09375 
Q 58.015625 40.1875 58.015625 27.296875 
Q 58.015625 14.40625 51.78125 6.484375 
Q 45.5625 -1.421875 35.59375 -1.421875 
Q 29.59375 -1.421875 25.265625 0.953125 
Q 20.953125 3.328125 18.109375 8.203125 
L 18.109375 0 
L 9.078125 0 
L 9.078125 75.984375 
L 18.109375 75.984375 
z
" id="DejaVuSans-98"/>
     <path d="M 8.5 21.578125 
L 8.5 54.6875 
L 17.484375 54.6875 
L 17.484375 21.921875 
Q 17.484375 14.15625 20.5 10.265625 
Q 23.53125 6.390625 29.59375 6.390625 
Q 36.859375 6.390625 41.078125 11.03125 
Q 45.3125 15.671875 45.3125 23.6875 
L 45.3125 54.6875 
L 54.296875 54.6875 
L 54.296875 0 
L 45.3125 0 
L 45.3125 8.40625 
Q 42.046875 3.421875 37.71875 1 
Q 33.40625 -1.421875 27.6875 -1.421875 
Q 18.265625 -1.421875 13.375 4.4375 
Q 8.5 10.296875 8.5 21.578125 
z
M 31.109375 56 
z
" id="DejaVuSans-117"/>
     <path d="M 30.609375 48.390625 
Q 23.390625 48.390625 19.1875 42.75 
Q 14.984375 37.109375 14.984375 27.296875 
Q 14.984375 17.484375 19.15625 11.84375 
Q 23.34375 6.203125 30.609375 6.203125 
Q 37.796875 6.203125 41.984375 11.859375 
Q 46.1875 17.53125 46.1875 27.296875 
Q 46.1875 37.015625 41.984375 42.703125 
Q 37.796875 48.390625 30.609375 48.390625 
z
M 30.609375 56 
Q 42.328125 56 49.015625 48.375 
Q 55.71875 40.765625 55.71875 27.296875 
Q 55.71875 13.875 49.015625 6.21875 
Q 42.328125 -1.421875 30.609375 -1.421875 
Q 18.84375 -1.421875 12.171875 6.21875 
Q 5.515625 13.875 5.515625 27.296875 
Q 5.515625 40.765625 12.171875 48.375 
Q 18.84375 56 30.609375 56 
z
" id="DejaVuSans-111"/>
     <path d="M 54.890625 33.015625 
L 54.890625 0 
L 45.90625 0 
L 45.90625 32.71875 
Q 45.90625 40.484375 42.875 44.328125 
Q 39.84375 48.1875 33.796875 48.1875 
Q 26.515625 48.1875 22.3125 43.546875 
Q 18.109375 38.921875 18.109375 30.90625 
L 18.109375 0 
L 9.078125 0 
L 9.078125 54.6875 
L 18.109375 54.6875 
L 18.109375 46.1875 
Q 21.34375 51.125 25.703125 53.5625 
Q 30.078125 56 35.796875 56 
Q 45.21875 56 50.046875 50.171875 
Q 54.890625 44.34375 54.890625 33.015625 
z
" id="DejaVuSans-110"/>
     <path id="DejaVuSans-32"/>
     <path d="M 37.109375 75.984375 
L 37.109375 68.5 
L 28.515625 68.5 
Q 23.6875 68.5 21.796875 66.546875 
Q 19.921875 64.59375 19.921875 59.515625 
L 19.921875 54.6875 
L 34.71875 54.6875 
L 34.71875 47.703125 
L 19.921875 47.703125 
L 19.921875 0 
L 10.890625 0 
L 10.890625 47.703125 
L 2.296875 47.703125 
L 2.296875 54.6875 
L 10.890625 54.6875 
L 10.890625 58.5 
Q 10.890625 67.625 15.140625 71.796875 
Q 19.390625 75.984375 28.609375 75.984375 
z
" id="DejaVuSans-102"/>
     <path d="M -0.296875 72.90625 
L 61.375 72.90625 
L 61.375 64.59375 
L 35.5 64.59375 
L 35.5 0 
L 25.59375 0 
L 25.59375 64.59375 
L -0.296875 64.59375 
z
" id="DejaVuSans-84"/>
     <path d="M 34.28125 27.484375 
Q 23.390625 27.484375 19.1875 25 
Q 14.984375 22.515625 14.984375 16.5 
Q 14.984375 11.71875 18.140625 8.90625 
Q 21.296875 6.109375 26.703125 6.109375 
Q 34.1875 6.109375 38.703125 11.40625 
Q 43.21875 16.703125 43.21875 25.484375 
L 43.21875 27.484375 
z
M 52.203125 31.203125 
L 52.203125 0 
L 43.21875 0 
L 43.21875 8.296875 
Q 40.140625 3.328125 35.546875 0.953125 
Q 30.953125 -1.421875 24.3125 -1.421875 
Q 15.921875 -1.421875 10.953125 3.296875 
Q 6 8.015625 6 15.921875 
Q 6 25.140625 12.171875 29.828125 
Q 18.359375 34.515625 30.609375 34.515625 
L 43.21875 34.515625 
L 43.21875 35.40625 
Q 43.21875 41.609375 39.140625 45 
Q 35.0625 48.390625 27.6875 48.390625 
Q 23 48.390625 18.546875 47.265625 
Q 14.109375 46.140625 10.015625 43.890625 
L 10.015625 52.203125 
Q 14.9375 54.109375 19.578125 55.046875 
Q 24.21875 56 28.609375 56 
Q 40.484375 56 46.34375 49.84375 
Q 52.203125 43.703125 52.203125 31.203125 
z
" id="DejaVuSans-97"/>
     <path d="M 48.78125 52.59375 
L 48.78125 44.1875 
Q 44.96875 46.296875 41.140625 47.34375 
Q 37.3125 48.390625 33.40625 48.390625 
Q 24.65625 48.390625 19.8125 42.84375 
Q 14.984375 37.3125 14.984375 27.296875 
Q 14.984375 17.28125 19.8125 11.734375 
Q 24.65625 6.203125 33.40625 6.203125 
Q 37.3125 6.203125 41.140625 7.25 
Q 44.96875 8.296875 48.78125 10.40625 
L 48.78125 2.09375 
Q 45.015625 0.34375 40.984375 -0.53125 
Q 36.96875 -1.421875 32.421875 -1.421875 
Q 20.0625 -1.421875 12.78125 6.34375 
Q 5.515625 14.109375 5.515625 27.296875 
Q 5.515625 40.671875 12.859375 48.328125 
Q 20.21875 56 33.015625 56 
Q 37.15625 56 41.109375 55.140625 
Q 45.0625 54.296875 48.78125 52.59375 
z
" id="DejaVuSans-99"/>
     <path d="M 34.1875 63.1875 
L 20.796875 26.90625 
L 47.609375 26.90625 
z
M 28.609375 72.90625 
L 39.796875 72.90625 
L 67.578125 0 
L 57.328125 0 
L 50.6875 18.703125 
L 17.828125 18.703125 
L 11.1875 0 
L 0.78125 0 
z
" id="DejaVuSans-65"/>
     <path d="M 52 44.1875 
Q 55.375 50.25 60.0625 53.125 
Q 64.75 56 71.09375 56 
Q 79.640625 56 84.28125 50.015625 
Q 88.921875 44.046875 88.921875 33.015625 
L 88.921875 0 
L 79.890625 0 
L 79.890625 32.71875 
Q 79.890625 40.578125 77.09375 44.375 
Q 74.3125 48.1875 68.609375 48.1875 
Q 61.625 48.1875 57.5625 43.546875 
Q 53.515625 38.921875 53.515625 30.90625 
L 53.515625 0 
L 44.484375 0 
L 44.484375 32.71875 
Q 44.484375 40.625 41.703125 44.40625 
Q 38.921875 48.1875 33.109375 48.1875 
Q 26.21875 48.1875 22.15625 43.53125 
Q 18.109375 38.875 18.109375 30.90625 
L 18.109375 0 
L 9.078125 0 
L 9.078125 54.6875 
L 18.109375 54.6875 
L 18.109375 46.1875 
Q 21.1875 51.21875 25.484375 53.609375 
Q 29.78125 56 35.6875 56 
Q 41.65625 56 45.828125 52.96875 
Q 50 49.953125 52 44.1875 
z
" id="DejaVuSans-109"/>
    </defs>
    <g transform="translate(162.021477 17.837812)scale(0.14 -0.14)">
     <use xlink:href="#DejaVuSans-68"/>
     <use x="77.001953" xlink:href="#DejaVuSans-105"/>
     <use x="104.785156" xlink:href="#DejaVuSans-115"/>
     <use x="156.884766" xlink:href="#DejaVuSans-116"/>
     <use x="196.09375" xlink:href="#DejaVuSans-114"/>
     <use x="237.207031" xlink:href="#DejaVuSans-105"/>
     <use x="264.990234" xlink:href="#DejaVuSans-98"/>
     <use x="328.466797" xlink:href="#DejaVuSans-117"/>
     <use x="391.845703" xlink:href="#DejaVuSans-116"/>
     <use x="431.054688" xlink:href="#DejaVuSans-105"/>
     <use x="458.837891" xlink:href="#DejaVuSans-111"/>
     <use x="520.019531" xlink:href="#DejaVuSans-110"/>
     <use x="583.398438" xlink:href="#DejaVuSans-32"/>
     <use x="615.185547" xlink:href="#DejaVuSans-111"/>
     <use x="676.367188" xlink:href="#DejaVuSans-102"/>
     <use x="711.572266" xlink:href="#DejaVuSans-32"/>
     <use x="743.359375" xlink:href="#DejaVuSans-84"/>
     <use x="789.693359" xlink:href="#DejaVuSans-114"/>
     <use x="830.806641" xlink:href="#DejaVuSans-97"/>
     <use x="892.085938" xlink:href="#DejaVuSans-110"/>
     <use x="955.464844" xlink:href="#DejaVuSans-115"/>
     <use x="1007.564453" xlink:href="#DejaVuSans-97"/>
     <use x="1068.84375" xlink:href="#DejaVuSans-99"/>
     <use x="1123.824219" xlink:href="#DejaVuSans-116"/>
     <use x="1163.033203" xlink:href="#DejaVuSans-105"/>
     <use x="1190.816406" xlink:href="#DejaVuSans-111"/>
     <use x="1251.998047" xlink:href="#DejaVuSans-110"/>
     <use x="1315.376953" xlink:href="#DejaVuSans-32"/>
     <use x="1347.164062" xlink:href="#DejaVuSans-65"/>
     <use x="1415.572266" xlink:href="#DejaVuSans-109"/>
     <use x="1512.984375" xlink:href="#DejaVuSans-111"/>
     <use x="1574.166016" xlink:href="#DejaVuSans-117"/>
     <use x="1637.544922" xlink:href="#DejaVuSans-110"/>
     <use x="1700.923828" xlink:href="#DejaVuSans-116"/>
    </g>
   </g>
  </g>
  <g id="axes_2">
   <g id="patch_57">
    <path d="M 603.40767 349.997812 
L 1059.953125 349.997812 
L 1059.953125 23.837812 
L 603.40767 23.837812 
z
" style="fill:#ffffff;"/>
   </g>
   <g id="patch_58">
    <path clip-path="url(#p07471666ed)" d="M 603.40767 349.997812 
L 612.53858 349.997812 
L 612.53858 229.855146 
L 603.40767 229.855146 
z
" style="fill:#0000ff;opacity:0.4;"/>
   </g>
   <g id="patch_59">
    <path clip-path="url(#p07471666ed)" d="M 612.53858 349.997812 
L 621.669489 349.997812 
L 621.669489 282.404047 
L 612.53858 282.404047 
z
" style="fill:#0000ff;opacity:0.4;"/>
   </g>
   <g id="patch_60">
    <path clip-path="url(#p07471666ed)" d="M 621.669489 349.997812 
L 630.800398 349.997812 
L 630.800398 304.492503 
L 621.669489 304.492503 
z
" style="fill:#0000ff;opacity:0.4;"/>
   </g>
   <g id="patch_61">
    <path clip-path="url(#p07471666ed)" d="M 630.800398 349.997812 
L 639.931307 349.997812 
L 639.931307 292.444254 
L 630.800398 292.444254 
z
" style="fill:#0000ff;opacity:0.4;"/>
   </g>
   <g id="patch_62">
    <path clip-path="url(#p07471666ed)" d="M 639.931307 349.997812 
L 649.062216 349.997812 
L 649.062216 316.108251 
L 639.931307 316.108251 
z
" style="fill:#0000ff;opacity:0.4;"/>
   </g>
   <g id="patch_63">
    <path clip-path="url(#p07471666ed)" d="M 649.062216 349.997812 
L 658.193125 349.997812 
L 658.193125 304.060002 
L 649.062216 304.060002 
z
" style="fill:#0000ff;opacity:0.4;"/>
   </g>
   <g id="patch_64">
    <path clip-path="url(#p07471666ed)" d="M 658.193125 349.997812 
L 667.324034 349.997812 
L 667.324034 299.055345 
L 658.193125 299.055345 
z
" style="fill:#0000ff;opacity:0.4;"/>
   </g>
   <g id="patch_65">
    <path clip-path="url(#p07471666ed)" d="M 667.324034 349.997812 
L 676.454943 349.997812 
L 676.454943 269.830618 
L 667.324034 269.830618 
z
" style="fill:#0000ff;opacity:0.4;"/>
   </g>
   <g id="patch_66">
    <path clip-path="url(#p07471666ed)" d="M 676.454943 349.997812 
L 685.585852 349.997812 
L 685.585852 217.467074 
L 676.454943 217.467074 
z
" style="fill:#0000ff;opacity:0.4;"/>
   </g>
   <g id="patch_67">
    <path clip-path="url(#p07471666ed)" d="M 685.585852 349.997812 
L 694.716761 349.997812 
L 694.716761 135.786125 
L 685.585852 135.786125 
z
" style="fill:#0000ff;opacity:0.4;"/>
   </g>
   <g id="patch_68">
    <path clip-path="url(#p07471666ed)" d="M 694.716761 349.997812 
L 703.84767 349.997812 
L 703.84767 110.731946 
L 694.716761 110.731946 
z
" style="fill:#0000ff;opacity:0.4;"/>
   </g>
   <g id="patch_69">
    <path clip-path="url(#p07471666ed)" d="M 703.84767 349.997812 
L 712.97858 349.997812 
L 712.97858 98.683697 
L 703.84767 98.683697 
z
" style="fill:#0000ff;opacity:0.4;"/>
   </g>
   <g id="patch_70">
    <path clip-path="url(#p07471666ed)" d="M 712.97858 349.997812 
L 722.109489 349.997812 
L 722.109489 101.093347 
L 712.97858 101.093347 
z
" style="fill:#0000ff;opacity:0.4;"/>
   </g>
   <g id="patch_71">
    <path clip-path="url(#p07471666ed)" d="M 722.109489 349.997812 
L 731.240398 349.997812 
L 731.240398 133.098439 
L 722.109489 133.098439 
z
" style="fill:#0000ff;opacity:0.4;"/>
   </g>
   <g id="patch_72">
    <path clip-path="url(#p07471666ed)" d="M 731.240398 349.997812 
L 740.371307 349.997812 
L 740.371307 116.199998 
L 731.240398 116.199998 
z
" style="fill:#0000ff;opacity:0.4;"/>
   </g>
   <g id="patch_73">
    <path clip-path="url(#p07471666ed)" d="M 740.371307 349.997812 
L 749.502216 349.997812 
L 749.502216 108.013367 
L 740.371307 108.013367 
z
" style="fill:#0000ff;opacity:0.4;"/>
   </g>
   <g id="patch_74">
    <path clip-path="url(#p07471666ed)" d="M 749.502216 349.997812 
L 758.633125 349.997812 
L 758.633125 128.588069 
L 749.502216 128.588069 
z
" style="fill:#0000ff;opacity:0.4;"/>
   </g>
   <g id="patch_75">
    <path clip-path="url(#p07471666ed)" d="M 758.633125 349.997812 
L 767.764034 349.997812 
L 767.764034 115.118745 
L 758.633125 115.118745 
z
" style="fill:#0000ff;opacity:0.4;"/>
   </g>
   <g id="patch_76">
    <path clip-path="url(#p07471666ed)" d="M 767.764034 349.997812 
L 776.894943 349.997812 
L 776.894943 114.748029 
L 767.764034 114.748029 
z
" style="fill:#0000ff;opacity:0.4;"/>
   </g>
   <g id="patch_77">
    <path clip-path="url(#p07471666ed)" d="M 776.894943 349.997812 
L 786.025852 349.997812 
L 786.025852 92.597787 
L 776.894943 92.597787 
z
" style="fill:#0000ff;opacity:0.4;"/>
   </g>
   <g id="patch_78">
    <path clip-path="url(#p07471666ed)" d="M 786.025852 349.997812 
L 795.156761 349.997812 
L 795.156761 112.245701 
L 786.025852 112.245701 
z
" style="fill:#0000ff;opacity:0.4;"/>
   </g>
   <g id="patch_79">
    <path clip-path="url(#p07471666ed)" d="M 795.156761 349.997812 
L 804.28767 349.997812 
L 804.28767 80.178823 
L 795.156761 80.178823 
z
" style="fill:#0000ff;opacity:0.4;"/>
   </g>
   <g id="patch_80">
    <path clip-path="url(#p07471666ed)" d="M 804.28767 349.997812 
L 813.41858 349.997812 
L 813.41858 39.369241 
L 804.28767 39.369241 
z
" style="fill:#0000ff;opacity:0.4;"/>
   </g>
   <g id="patch_81">
    <path clip-path="url(#p07471666ed)" d="M 813.41858 349.997812 
L 822.549489 349.997812 
L 822.549489 104.831394 
L 813.41858 104.831394 
z
" style="fill:#0000ff;opacity:0.4;"/>
   </g>
   <g id="patch_82">
    <path clip-path="url(#p07471666ed)" d="M 822.549489 349.997812 
L 831.680398 349.997812 
L 831.680398 170.139081 
L 822.549489 170.139081 
z
" style="fill:#0000ff;opacity:0.4;"/>
   </g>
   <g id="patch_83">
    <path clip-path="url(#p07471666ed)" d="M 831.680398 349.997812 
L 840.811307 349.997812 
L 840.811307 237.640168 
L 831.680398 237.640168 
z
" style="fill:#0000ff;opacity:0.4;"/>
   </g>
   <g id="patch_84">
    <path clip-path="url(#p07471666ed)" d="M 840.811307 349.997812 
L 849.942216 349.997812 
L 849.942216 288.335492 
L 840.811307 288.335492 
z
" style="fill:#0000ff;opacity:0.4;"/>
   </g>
   <g id="patch_85">
    <path clip-path="url(#p07471666ed)" d="M 849.942216 349.997812 
L 859.073125 349.997812 
L 859.073125 299.734989 
L 849.942216 299.734989 
z
" style="fill:#0000ff;opacity:0.4;"/>
   </g>
   <g id="patch_86">
    <path clip-path="url(#p07471666ed)" d="M 859.073125 349.997812 
L 868.204034 349.997812 
L 868.204034 295.039262 
L 859.073125 295.039262 
z
" style="fill:#0000ff;opacity:0.4;"/>
   </g>
   <g id="patch_87">
    <path clip-path="url(#p07471666ed)" d="M 868.204034 349.997812 
L 877.334943 349.997812 
L 877.334943 315.830214 
L 868.204034 315.830214 
z
" style="fill:#0000ff;opacity:0.4;"/>
   </g>
   <g id="patch_88">
    <path clip-path="url(#p07471666ed)" d="M 877.334943 349.997812 
L 886.465852 349.997812 
L 886.465852 315.459499 
L 877.334943 315.459499 
z
" style="fill:#0000ff;opacity:0.4;"/>
   </g>
   <g id="patch_89">
    <path clip-path="url(#p07471666ed)" d="M 886.465852 349.997812 
L 895.596761 349.997812 
L 895.596761 292.938541 
L 886.465852 292.938541 
z
" style="fill:#0000ff;opacity:0.4;"/>
   </g>
   <g id="patch_90">
    <path clip-path="url(#p07471666ed)" d="M 895.596761 349.997812 
L 904.72767 349.997812 
L 904.72767 245.73412 
L 895.596761 245.73412 
z
" style="fill:#0000ff;opacity:0.4;"/>
   </g>
   <g id="patch_91">
    <path clip-path="url(#p07471666ed)" d="M 904.72767 349.997812 
L 913.85858 349.997812 
L 913.85858 217.992254 
L 904.72767 217.992254 
z
" style="fill:#0000ff;opacity:0.4;"/>
   </g>
   <g id="patch_92">
    <path clip-path="url(#p07471666ed)" d="M 913.85858 349.997812 
L 922.989489 349.997812 
L 922.989489 147.710802 
L 913.85858 147.710802 
z
" style="fill:#0000ff;opacity:0.4;"/>
   </g>
   <g id="patch_93">
    <path clip-path="url(#p07471666ed)" d="M 922.989489 349.997812 
L 932.120398 349.997812 
L 932.120398 100.444595 
L 922.989489 100.444595 
z
" style="fill:#0000ff;opacity:0.4;"/>
   </g>
   <g id="patch_94">
    <path clip-path="url(#p07471666ed)" d="M 932.120398 349.997812 
L 941.251307 349.997812 
L 941.251307 101.711206 
L 932.120398 101.711206 
z
" style="fill:#0000ff;opacity:0.4;"/>
   </g>
   <g id="patch_95">
    <path clip-path="url(#p07471666ed)" d="M 941.251307 349.997812 
L 950.382216 349.997812 
L 950.382216 108.754798 
L 941.251307 108.754798 
z
" style="fill:#0000ff;opacity:0.4;"/>
   </g>
   <g id="patch_96">
    <path clip-path="url(#p07471666ed)" d="M 950.382216 349.997812 
L 959.513125 349.997812 
L 959.513125 123.398054 
L 950.382216 123.398054 
z
" style="fill:#0000ff;opacity:0.4;"/>
   </g>
   <g id="patch_97">
    <path clip-path="url(#p07471666ed)" d="M 959.513125 349.997812 
L 968.644034 349.997812 
L 968.644034 112.369272 
L 959.513125 112.369272 
z
" style="fill:#0000ff;opacity:0.4;"/>
   </g>
   <g id="patch_98">
    <path clip-path="url(#p07471666ed)" d="M 968.644034 349.997812 
L 977.774943 349.997812 
L 977.774943 93.709933 
L 968.644034 93.709933 
z
" style="fill:#0000ff;opacity:0.4;"/>
   </g>
   <g id="patch_99">
    <path clip-path="url(#p07471666ed)" d="M 977.774943 349.997812 
L 986.905852 349.997812 
L 986.905852 94.080648 
L 977.774943 94.080648 
z
" style="fill:#0000ff;opacity:0.4;"/>
   </g>
   <g id="patch_100">
    <path clip-path="url(#p07471666ed)" d="M 986.905852 349.997812 
L 996.036761 349.997812 
L 996.036761 93.277432 
L 986.905852 93.277432 
z
" style="fill:#0000ff;opacity:0.4;"/>
   </g>
   <g id="patch_101">
    <path clip-path="url(#p07471666ed)" d="M 996.036761 349.997812 
L 1005.16767 349.997812 
L 1005.16767 108.600333 
L 996.036761 108.600333 
z
" style="fill:#0000ff;opacity:0.4;"/>
   </g>
   <g id="patch_102">
    <path clip-path="url(#p07471666ed)" d="M 1005.16767 349.997812 
L 1014.29858 349.997812 
L 1014.29858 100.537274 
L 1005.16767 100.537274 
z
" style="fill:#0000ff;opacity:0.4;"/>
   </g>
   <g id="patch_103">
    <path clip-path="url(#p07471666ed)" d="M 1014.29858 349.997812 
L 1023.429489 349.997812 
L 1023.429489 124.324842 
L 1014.29858 124.324842 
z
" style="fill:#0000ff;opacity:0.4;"/>
   </g>
   <g id="patch_104">
    <path clip-path="url(#p07471666ed)" d="M 1023.429489 349.997812 
L 1032.560398 349.997812 
L 1032.560398 118.053574 
L 1023.429489 118.053574 
z
" style="fill:#0000ff;opacity:0.4;"/>
   </g>
   <g id="patch_105">
    <path clip-path="url(#p07471666ed)" d="M 1032.560398 349.997812 
L 1041.691307 349.997812 
L 1041.691307 117.312144 
L 1032.560398 117.312144 
z
" style="fill:#0000ff;opacity:0.4;"/>
   </g>
   <g id="patch_106">
    <path clip-path="url(#p07471666ed)" d="M 1041.691307 349.997812 
L 1050.822216 349.997812 
L 1050.822216 165.752283 
L 1041.691307 165.752283 
z
" style="fill:#0000ff;opacity:0.4;"/>
   </g>
   <g id="patch_107">
    <path clip-path="url(#p07471666ed)" d="M 1050.822216 349.997812 
L 1059.953125 349.997812 
L 1059.953125 205.480611 
L 1050.822216 205.480611 
z
" style="fill:#0000ff;opacity:0.4;"/>
   </g>
   <g id="matplotlib.axis_3">
    <g id="xtick_7">
     <g id="line2d_16">
      <g>
       <use style="stroke:#000000;stroke-width:0.8;" x="603.40767" xlink:href="#md060ecb054" y="349.997812"/>
      </g>
     </g>
     <g id="text_16">
      <!-- 0 -->
      <g transform="translate(600.22642 364.59625)scale(0.1 -0.1)">
       <use xlink:href="#DejaVuSans-48"/>
      </g>
     </g>
    </g>
    <g id="xtick_8">
     <g id="line2d_17">
      <g>
       <use style="stroke:#000000;stroke-width:0.8;" x="656.251026" xlink:href="#md060ecb054" y="349.997812"/>
      </g>
     </g>
     <g id="text_17">
      <!-- 20000 -->
      <g transform="translate(640.344776 364.59625)scale(0.1 -0.1)">
       <use xlink:href="#DejaVuSans-50"/>
       <use x="63.623047" xlink:href="#DejaVuSans-48"/>
       <use x="127.246094" xlink:href="#DejaVuSans-48"/>
       <use x="190.869141" xlink:href="#DejaVuSans-48"/>
       <use x="254.492188" xlink:href="#DejaVuSans-48"/>
      </g>
     </g>
    </g>
    <g id="xtick_9">
     <g id="line2d_18">
      <g>
       <use style="stroke:#000000;stroke-width:0.8;" x="709.094382" xlink:href="#md060ecb054" y="349.997812"/>
      </g>
     </g>
     <g id="text_18">
      <!-- 40000 -->
      <defs>
       <path d="M 37.796875 64.3125 
L 12.890625 25.390625 
L 37.796875 25.390625 
z
M 35.203125 72.90625 
L 47.609375 72.90625 
L 47.609375 25.390625 
L 58.015625 25.390625 
L 58.015625 17.1875 
L 47.609375 17.1875 
L 47.609375 0 
L 37.796875 0 
L 37.796875 17.1875 
L 4.890625 17.1875 
L 4.890625 26.703125 
z
" id="DejaVuSans-52"/>
      </defs>
      <g transform="translate(693.188132 364.59625)scale(0.1 -0.1)">
       <use xlink:href="#DejaVuSans-52"/>
       <use x="63.623047" xlink:href="#DejaVuSans-48"/>
       <use x="127.246094" xlink:href="#DejaVuSans-48"/>
       <use x="190.869141" xlink:href="#DejaVuSans-48"/>
       <use x="254.492188" xlink:href="#DejaVuSans-48"/>
      </g>
     </g>
    </g>
    <g id="xtick_10">
     <g id="line2d_19">
      <g>
       <use style="stroke:#000000;stroke-width:0.8;" x="761.937737" xlink:href="#md060ecb054" y="349.997812"/>
      </g>
     </g>
     <g id="text_19">
      <!-- 60000 -->
      <defs>
       <path d="M 33.015625 40.375 
Q 26.375 40.375 22.484375 35.828125 
Q 18.609375 31.296875 18.609375 23.390625 
Q 18.609375 15.53125 22.484375 10.953125 
Q 26.375 6.390625 33.015625 6.390625 
Q 39.65625 6.390625 43.53125 10.953125 
Q 47.40625 15.53125 47.40625 23.390625 
Q 47.40625 31.296875 43.53125 35.828125 
Q 39.65625 40.375 33.015625 40.375 
z
M 52.59375 71.296875 
L 52.59375 62.3125 
Q 48.875 64.0625 45.09375 64.984375 
Q 41.3125 65.921875 37.59375 65.921875 
Q 27.828125 65.921875 22.671875 59.328125 
Q 17.53125 52.734375 16.796875 39.40625 
Q 19.671875 43.65625 24.015625 45.921875 
Q 28.375 48.1875 33.59375 48.1875 
Q 44.578125 48.1875 50.953125 41.515625 
Q 57.328125 34.859375 57.328125 23.390625 
Q 57.328125 12.15625 50.6875 5.359375 
Q 44.046875 -1.421875 33.015625 -1.421875 
Q 20.359375 -1.421875 13.671875 8.265625 
Q 6.984375 17.96875 6.984375 36.375 
Q 6.984375 53.65625 15.1875 63.9375 
Q 23.390625 74.21875 37.203125 74.21875 
Q 40.921875 74.21875 44.703125 73.484375 
Q 48.484375 72.75 52.59375 71.296875 
z
" id="DejaVuSans-54"/>
      </defs>
      <g transform="translate(746.031487 364.59625)scale(0.1 -0.1)">
       <use xlink:href="#DejaVuSans-54"/>
       <use x="63.623047" xlink:href="#DejaVuSans-48"/>
       <use x="127.246094" xlink:href="#DejaVuSans-48"/>
       <use x="190.869141" xlink:href="#DejaVuSans-48"/>
       <use x="254.492188" xlink:href="#DejaVuSans-48"/>
      </g>
     </g>
    </g>
    <g id="xtick_11">
     <g id="line2d_20">
      <g>
       <use style="stroke:#000000;stroke-width:0.8;" x="814.781093" xlink:href="#md060ecb054" y="349.997812"/>
      </g>
     </g>
     <g id="text_20">
      <!-- 80000 -->
      <defs>
       <path d="M 31.78125 34.625 
Q 24.75 34.625 20.71875 30.859375 
Q 16.703125 27.09375 16.703125 20.515625 
Q 16.703125 13.921875 20.71875 10.15625 
Q 24.75 6.390625 31.78125 6.390625 
Q 38.8125 6.390625 42.859375 10.171875 
Q 46.921875 13.96875 46.921875 20.515625 
Q 46.921875 27.09375 42.890625 30.859375 
Q 38.875 34.625 31.78125 34.625 
z
M 21.921875 38.8125 
Q 15.578125 40.375 12.03125 44.71875 
Q 8.5 49.078125 8.5 55.328125 
Q 8.5 64.0625 14.71875 69.140625 
Q 20.953125 74.21875 31.78125 74.21875 
Q 42.671875 74.21875 48.875 69.140625 
Q 55.078125 64.0625 55.078125 55.328125 
Q 55.078125 49.078125 51.53125 44.71875 
Q 48 40.375 41.703125 38.8125 
Q 48.828125 37.15625 52.796875 32.3125 
Q 56.78125 27.484375 56.78125 20.515625 
Q 56.78125 9.90625 50.3125 4.234375 
Q 43.84375 -1.421875 31.78125 -1.421875 
Q 19.734375 -1.421875 13.25 4.234375 
Q 6.78125 9.90625 6.78125 20.515625 
Q 6.78125 27.484375 10.78125 32.3125 
Q 14.796875 37.15625 21.921875 38.8125 
z
M 18.3125 54.390625 
Q 18.3125 48.734375 21.84375 45.5625 
Q 25.390625 42.390625 31.78125 42.390625 
Q 38.140625 42.390625 41.71875 45.5625 
Q 45.3125 48.734375 45.3125 54.390625 
Q 45.3125 60.0625 41.71875 63.234375 
Q 38.140625 66.40625 31.78125 66.40625 
Q 25.390625 66.40625 21.84375 63.234375 
Q 18.3125 60.0625 18.3125 54.390625 
z
" id="DejaVuSans-56"/>
      </defs>
      <g transform="translate(798.874843 364.59625)scale(0.1 -0.1)">
       <use xlink:href="#DejaVuSans-56"/>
       <use x="63.623047" xlink:href="#DejaVuSans-48"/>
       <use x="127.246094" xlink:href="#DejaVuSans-48"/>
       <use x="190.869141" xlink:href="#DejaVuSans-48"/>
       <use x="254.492188" xlink:href="#DejaVuSans-48"/>
      </g>
     </g>
    </g>
    <g id="xtick_12">
     <g id="line2d_21">
      <g>
       <use style="stroke:#000000;stroke-width:0.8;" x="867.624448" xlink:href="#md060ecb054" y="349.997812"/>
      </g>
     </g>
     <g id="text_21">
      <!-- 100000 -->
      <g transform="translate(848.536948 364.59625)scale(0.1 -0.1)">
       <use xlink:href="#DejaVuSans-49"/>
       <use x="63.623047" xlink:href="#DejaVuSans-48"/>
       <use x="127.246094" xlink:href="#DejaVuSans-48"/>
       <use x="190.869141" xlink:href="#DejaVuSans-48"/>
       <use x="254.492188" xlink:href="#DejaVuSans-48"/>
       <use x="318.115234" xlink:href="#DejaVuSans-48"/>
      </g>
     </g>
    </g>
    <g id="xtick_13">
     <g id="line2d_22">
      <g>
       <use style="stroke:#000000;stroke-width:0.8;" x="920.467804" xlink:href="#md060ecb054" y="349.997812"/>
      </g>
     </g>
     <g id="text_22">
      <!-- 120000 -->
      <g transform="translate(901.380304 364.59625)scale(0.1 -0.1)">
       <use xlink:href="#DejaVuSans-49"/>
       <use x="63.623047" xlink:href="#DejaVuSans-50"/>
       <use x="127.246094" xlink:href="#DejaVuSans-48"/>
       <use x="190.869141" xlink:href="#DejaVuSans-48"/>
       <use x="254.492188" xlink:href="#DejaVuSans-48"/>
       <use x="318.115234" xlink:href="#DejaVuSans-48"/>
      </g>
     </g>
    </g>
    <g id="xtick_14">
     <g id="line2d_23">
      <g>
       <use style="stroke:#000000;stroke-width:0.8;" x="973.311159" xlink:href="#md060ecb054" y="349.997812"/>
      </g>
     </g>
     <g id="text_23">
      <!-- 140000 -->
      <g transform="translate(954.223659 364.59625)scale(0.1 -0.1)">
       <use xlink:href="#DejaVuSans-49"/>
       <use x="63.623047" xlink:href="#DejaVuSans-52"/>
       <use x="127.246094" xlink:href="#DejaVuSans-48"/>
       <use x="190.869141" xlink:href="#DejaVuSans-48"/>
       <use x="254.492188" xlink:href="#DejaVuSans-48"/>
       <use x="318.115234" xlink:href="#DejaVuSans-48"/>
      </g>
     </g>
    </g>
    <g id="xtick_15">
     <g id="line2d_24">
      <g>
       <use style="stroke:#000000;stroke-width:0.8;" x="1026.154515" xlink:href="#md060ecb054" y="349.997812"/>
      </g>
     </g>
     <g id="text_24">
      <!-- 160000 -->
      <g transform="translate(1007.067015 364.59625)scale(0.1 -0.1)">
       <use xlink:href="#DejaVuSans-49"/>
       <use x="63.623047" xlink:href="#DejaVuSans-54"/>
       <use x="127.246094" xlink:href="#DejaVuSans-48"/>
       <use x="190.869141" xlink:href="#DejaVuSans-48"/>
       <use x="254.492188" xlink:href="#DejaVuSans-48"/>
       <use x="318.115234" xlink:href="#DejaVuSans-48"/>
      </g>
     </g>
    </g>
   </g>
   <g id="matplotlib.axis_4">
    <g id="ytick_9">
     <g id="line2d_25">
      <g>
       <use style="stroke:#000000;stroke-width:0.8;" x="603.40767" xlink:href="#mbaad12c150" y="349.997812"/>
      </g>
     </g>
     <g id="text_25">
      <!-- 0.0 -->
      <g transform="translate(580.504545 353.797031)scale(0.1 -0.1)">
       <use xlink:href="#DejaVuSans-48"/>
       <use x="63.623047" xlink:href="#DejaVuSans-46"/>
       <use x="95.410156" xlink:href="#DejaVuSans-48"/>
      </g>
     </g>
    </g>
    <g id="ytick_10">
     <g id="line2d_26">
      <g>
       <use style="stroke:#000000;stroke-width:0.8;" x="603.40767" xlink:href="#mbaad12c150" y="289.185208"/>
      </g>
     </g>
     <g id="text_26">
      <!-- 0.2 -->
      <g transform="translate(580.504545 292.984426)scale(0.1 -0.1)">
       <use xlink:href="#DejaVuSans-48"/>
       <use x="63.623047" xlink:href="#DejaVuSans-46"/>
       <use x="95.410156" xlink:href="#DejaVuSans-50"/>
      </g>
     </g>
    </g>
    <g id="ytick_11">
     <g id="line2d_27">
      <g>
       <use style="stroke:#000000;stroke-width:0.8;" x="603.40767" xlink:href="#mbaad12c150" y="228.372603"/>
      </g>
     </g>
     <g id="text_27">
      <!-- 0.4 -->
      <g transform="translate(580.504545 232.171822)scale(0.1 -0.1)">
       <use xlink:href="#DejaVuSans-48"/>
       <use x="63.623047" xlink:href="#DejaVuSans-46"/>
       <use x="95.410156" xlink:href="#DejaVuSans-52"/>
      </g>
     </g>
    </g>
    <g id="ytick_12">
     <g id="line2d_28">
      <g>
       <use style="stroke:#000000;stroke-width:0.8;" x="603.40767" xlink:href="#mbaad12c150" y="167.559998"/>
      </g>
     </g>
     <g id="text_28">
      <!-- 0.6 -->
      <g transform="translate(580.504545 171.359217)scale(0.1 -0.1)">
       <use xlink:href="#DejaVuSans-48"/>
       <use x="63.623047" xlink:href="#DejaVuSans-46"/>
       <use x="95.410156" xlink:href="#DejaVuSans-54"/>
      </g>
     </g>
    </g>
    <g id="ytick_13">
     <g id="line2d_29">
      <g>
       <use style="stroke:#000000;stroke-width:0.8;" x="603.40767" xlink:href="#mbaad12c150" y="106.747393"/>
      </g>
     </g>
     <g id="text_29">
      <!-- 0.8 -->
      <g transform="translate(580.504545 110.546612)scale(0.1 -0.1)">
       <use xlink:href="#DejaVuSans-48"/>
       <use x="63.623047" xlink:href="#DejaVuSans-46"/>
       <use x="95.410156" xlink:href="#DejaVuSans-56"/>
      </g>
     </g>
    </g>
    <g id="ytick_14">
     <g id="line2d_30">
      <g>
       <use style="stroke:#000000;stroke-width:0.8;" x="603.40767" xlink:href="#mbaad12c150" y="45.934788"/>
      </g>
     </g>
     <g id="text_30">
      <!-- 1.0 -->
      <g transform="translate(580.504545 49.734007)scale(0.1 -0.1)">
       <use xlink:href="#DejaVuSans-49"/>
       <use x="63.623047" xlink:href="#DejaVuSans-46"/>
       <use x="95.410156" xlink:href="#DejaVuSans-48"/>
      </g>
     </g>
    </g>
    <g id="text_31">
     <!-- 1e5 -->
     <defs>
      <path d="M 56.203125 29.59375 
L 56.203125 25.203125 
L 14.890625 25.203125 
Q 15.484375 15.921875 20.484375 11.0625 
Q 25.484375 6.203125 34.421875 6.203125 
Q 39.59375 6.203125 44.453125 7.46875 
Q 49.3125 8.734375 54.109375 11.28125 
L 54.109375 2.78125 
Q 49.265625 0.734375 44.1875 -0.34375 
Q 39.109375 -1.421875 33.890625 -1.421875 
Q 20.796875 -1.421875 13.15625 6.1875 
Q 5.515625 13.8125 5.515625 26.8125 
Q 5.515625 40.234375 12.765625 48.109375 
Q 20.015625 56 32.328125 56 
Q 43.359375 56 49.78125 48.890625 
Q 56.203125 41.796875 56.203125 29.59375 
z
M 47.21875 32.234375 
Q 47.125 39.59375 43.09375 43.984375 
Q 39.0625 48.390625 32.421875 48.390625 
Q 24.90625 48.390625 20.390625 44.140625 
Q 15.875 39.890625 15.1875 32.171875 
z
" id="DejaVuSans-101"/>
      <path d="M 10.59375 35.5 
L 73.1875 35.5 
L 73.1875 27.203125 
L 10.59375 27.203125 
z
" id="DejaVuSans-8722"/>
     </defs>
     <g transform="translate(603.40767 20.837812)scale(0.1 -0.1)">
      <use xlink:href="#DejaVuSans-49"/>
      <use x="63.623047" xlink:href="#DejaVuSans-101"/>
      <use x="125.146484" xlink:href="#DejaVuSans-8722"/>
      <use x="208.935547" xlink:href="#DejaVuSans-53"/>
     </g>
    </g>
   </g>
   <g id="line2d_31">
    <path clip-path="url(#p07471666ed)" d="M 571.074173 349.758243 
L 575.178208 349.390142 
L 579.282243 348.341623 
L 583.386278 345.974066 
L 587.490313 341.406022 
L 591.594348 333.852335 
L 595.698383 323.209046 
L 603.906453 298.200881 
L 608.010488 288.680562 
L 612.114523 283.710031 
L 616.218558 283.329041 
L 620.322593 286.156225 
L 628.530663 294.733126 
L 632.634698 298.681103 
L 636.738733 302.094811 
L 640.842768 304.720622 
L 644.946803 306.041181 
L 649.050838 305.485548 
L 653.154873 302.666744 
L 657.258908 297.382833 
L 661.362944 289.430052 
L 665.466979 278.48166 
L 669.571014 264.200026 
L 673.675049 246.514986 
L 677.779084 225.877432 
L 685.987154 180.510117 
L 690.091189 159.136667 
L 694.195224 140.818059 
L 698.299259 126.580901 
L 702.403294 116.758531 
L 706.507329 111.110542 
L 710.611364 109.031118 
L 714.715399 109.669855 
L 718.819434 111.964901 
L 722.923469 114.740274 
L 727.027504 116.965308 
L 731.131539 118.073208 
L 735.235574 118.111861 
L 743.443644 117.098462 
L 747.547679 116.952172 
L 751.651714 117.053325 
L 755.755749 117.02672 
L 759.859785 116.477763 
L 763.96382 115.188164 
L 768.067855 113.16583 
L 772.17189 110.585324 
L 776.275925 107.671245 
L 780.37996 104.542759 
L 784.483995 101.079956 
L 788.58803 96.961479 
L 792.692065 91.982228 
L 796.7961 86.53683 
L 800.900135 81.940907 
L 805.00417 80.281786 
L 809.108205 83.76092 
L 813.21224 93.830574 
L 817.316275 110.598965 
L 821.42031 132.827778 
L 825.524345 158.452031 
L 829.62838 185.232853 
L 833.732415 211.182405 
L 837.83645 234.702876 
L 841.940485 254.628302 
L 846.04452 270.336035 
L 850.148555 281.891105 
L 854.25259 290.037263 
L 858.356625 295.902755 
L 862.460661 300.501734 
L 866.564696 304.293416 
L 870.668731 307.04241 
L 874.772766 308.020524 
L 878.876801 306.384688 
L 882.980836 301.515286 
L 887.084871 293.192055 
L 891.188906 281.596632 
L 895.292941 267.182674 
L 899.396976 250.477522 
L 903.501011 231.92548 
L 907.605046 211.907863 
L 915.813116 170.112569 
L 919.917151 150.76097 
L 924.021186 134.451065 
L 928.125221 122.27028 
L 932.229256 114.51132 
L 936.333291 110.690762 
L 940.437326 109.820236 
L 944.541361 110.697281 
L 948.645396 112.108123 
L 952.749431 112.990746 
L 956.853466 112.616609 
L 960.957502 110.750505 
L 965.061537 107.685261 
L 969.165572 104.09305 
L 973.269607 100.74562 
L 977.373642 98.240991 
L 981.477677 96.865345 
L 985.581712 96.620186 
L 989.685747 97.341863 
L 993.789782 98.820371 
L 997.893817 100.875763 
L 1001.997852 103.387119 
L 1006.101887 106.26404 
L 1018.413992 115.451139 
L 1022.518027 118.310369 
L 1026.622062 121.624177 
L 1030.726097 126.411229 
L 1034.830132 133.92471 
L 1038.934167 145.328138 
L 1043.038202 161.430965 
L 1047.142237 182.491904 
L 1051.246272 208.001988 
L 1059.454342 265.451924 
L 1063.558378 292.059538 
L 1067.662413 313.86259 
L 1068.153125 315.753742 
L 1068.153125 315.753742 
" style="fill:none;stroke:#0000ff;stroke-linecap:square;stroke-width:1.5;"/>
   </g>
   <g id="patch_108">
    <path d="M 603.40767 349.997812 
L 603.40767 23.837812 
" style="fill:none;stroke:#000000;stroke-linecap:square;stroke-linejoin:miter;stroke-width:0.8;"/>
   </g>
   <g id="patch_109">
    <path d="M 1059.953125 349.997812 
L 1059.953125 23.837812 
" style="fill:none;stroke:#000000;stroke-linecap:square;stroke-linejoin:miter;stroke-width:0.8;"/>
   </g>
   <g id="patch_110">
    <path d="M 603.40767 349.997812 
L 1059.953125 349.997812 
" style="fill:none;stroke:#000000;stroke-linecap:square;stroke-linejoin:miter;stroke-width:0.8;"/>
   </g>
   <g id="patch_111">
    <path d="M 603.40767 23.837812 
L 1059.953125 23.837812 
" style="fill:none;stroke:#000000;stroke-linecap:square;stroke-linejoin:miter;stroke-width:0.8;"/>
   </g>
   <g id="text_32">
    <!-- Distribution of Transaction Time -->
    <g transform="translate(720.25571 17.837812)scale(0.14 -0.14)">
     <use xlink:href="#DejaVuSans-68"/>
     <use x="77.001953" xlink:href="#DejaVuSans-105"/>
     <use x="104.785156" xlink:href="#DejaVuSans-115"/>
     <use x="156.884766" xlink:href="#DejaVuSans-116"/>
     <use x="196.09375" xlink:href="#DejaVuSans-114"/>
     <use x="237.207031" xlink:href="#DejaVuSans-105"/>
     <use x="264.990234" xlink:href="#DejaVuSans-98"/>
     <use x="328.466797" xlink:href="#DejaVuSans-117"/>
     <use x="391.845703" xlink:href="#DejaVuSans-116"/>
     <use x="431.054688" xlink:href="#DejaVuSans-105"/>
     <use x="458.837891" xlink:href="#DejaVuSans-111"/>
     <use x="520.019531" xlink:href="#DejaVuSans-110"/>
     <use x="583.398438" xlink:href="#DejaVuSans-32"/>
     <use x="615.185547" xlink:href="#DejaVuSans-111"/>
     <use x="676.367188" xlink:href="#DejaVuSans-102"/>
     <use x="711.572266" xlink:href="#DejaVuSans-32"/>
     <use x="743.359375" xlink:href="#DejaVuSans-84"/>
     <use x="789.693359" xlink:href="#DejaVuSans-114"/>
     <use x="830.806641" xlink:href="#DejaVuSans-97"/>
     <use x="892.085938" xlink:href="#DejaVuSans-110"/>
     <use x="955.464844" xlink:href="#DejaVuSans-115"/>
     <use x="1007.564453" xlink:href="#DejaVuSans-97"/>
     <use x="1068.84375" xlink:href="#DejaVuSans-99"/>
     <use x="1123.824219" xlink:href="#DejaVuSans-116"/>
     <use x="1163.033203" xlink:href="#DejaVuSans-105"/>
     <use x="1190.816406" xlink:href="#DejaVuSans-111"/>
     <use x="1251.998047" xlink:href="#DejaVuSans-110"/>
     <use x="1315.376953" xlink:href="#DejaVuSans-32"/>
     <use x="1347.164062" xlink:href="#DejaVuSans-84"/>
     <use x="1405.123047" xlink:href="#DejaVuSans-105"/>
     <use x="1432.90625" xlink:href="#DejaVuSans-109"/>
     <use x="1530.318359" xlink:href="#DejaVuSans-101"/>
    </g>
   </g>
  </g>
 </g>
 <defs>
  <clipPath id="pe55e49ccb3">
   <rect height="326.16" width="456.545455" x="55.553125" y="23.837812"/>
  </clipPath>
  <clipPath id="p07471666ed">
   <rect height="326.16" width="456.545455" x="603.40767" y="23.837812"/>
  </clipPath>
 </defs>
</svg>
